<svg width="335" height="129" viewBox="0 0 335 129" fill="none" xmlns="http://www.w3.org/2000/svg">
<g filter="url(#filter0_dd_5181_36373)">
<path d="M301 22.6C306.523 22.6 311 27.0771 311 32.6V50.6C304.373 50.6 299 55.9726 299 62.6C299 69.2274 304.373 74.6 311 74.6V92.6C311 98.1228 306.523 102.6 301 102.6H34C28.4772 102.6 24 98.1228 24 92.6V74.598C30.5698 74.531 35.875 69.1857 35.875 62.6C35.875 56.0143 30.5698 50.668 24 50.601V32.6C24 27.0771 28.4772 22.6 34 22.6H301Z" fill="url(#paint0_linear_5181_36373)"/>
<path d="M86.8551 69.6L91.6751 62.28L87.0551 55.6H89.7751L93.1751 60.5L96.6151 55.6H99.2551L94.6551 62.24L99.4551 69.6H96.6951L93.1351 64L89.5351 69.6H86.8551ZM105.158 69.82C104.185 69.82 103.305 69.62 102.518 69.22C101.732 68.8066 101.105 68.2 100.638 67.4C100.185 66.5866 99.9582 65.5866 99.9582 64.4V64C99.9582 62.88 100.185 61.9333 100.638 61.16C101.105 60.3733 101.732 59.78 102.518 59.38C103.305 58.98 104.185 58.78 105.158 58.78C106.145 58.78 107.025 58.98 107.798 59.38C108.585 59.78 109.205 60.3733 109.658 61.16C110.125 61.9333 110.358 62.88 110.358 64V64.4C110.358 65.5866 110.125 66.5866 109.658 67.4C109.205 68.2 108.585 68.8066 107.798 69.22C107.025 69.62 106.145 69.82 105.158 69.82ZM105.158 67.9C105.665 67.9 106.145 67.78 106.598 67.54C107.052 67.3 107.418 66.9266 107.698 66.42C107.978 65.9 108.118 65.2266 108.118 64.4V64C108.118 63.24 107.978 62.62 107.698 62.14C107.418 61.6466 107.052 61.2866 106.598 61.06C106.145 60.82 105.665 60.7 105.158 60.7C104.652 60.7 104.172 60.82 103.718 61.06C103.265 61.2866 102.898 61.6466 102.618 62.14C102.338 62.62 102.198 63.24 102.198 64V64.4C102.198 65.2266 102.338 65.9 102.618 66.42C102.898 66.9266 103.265 67.3 103.718 67.54C104.172 67.78 104.652 67.9 105.158 67.9ZM118.35 69.6V65.54C118.044 65.7266 117.677 65.8933 117.25 66.04C116.837 66.1866 116.304 66.26 115.65 66.26C114.384 66.26 113.417 65.96 112.75 65.36C112.084 64.76 111.75 63.8066 111.75 62.5V59H113.95V62.2C113.95 63 114.11 63.56 114.43 63.88C114.764 64.1866 115.337 64.34 116.15 64.34C116.71 64.34 117.177 64.28 117.55 64.16C117.937 64.0266 118.204 63.9 118.35 63.78V59H120.55V69.6H118.35ZM124.642 73.82C124.442 73.82 124.242 73.8 124.042 73.76V71.84C124.242 71.88 124.442 71.9 124.642 71.9C124.935 71.9 125.175 71.8266 125.362 71.68C125.548 71.5466 125.722 71.3133 125.882 70.98C126.042 70.6466 126.228 70.1866 126.442 69.6L121.942 59H124.342L127.582 67.2L130.502 59H132.742L128.642 69.6C128.255 70.5866 127.888 71.3933 127.542 72.02C127.195 72.6466 126.802 73.1 126.362 73.38C125.922 73.6733 125.348 73.82 124.642 73.82ZM138.743 69.6V59H143.743C144.637 59 145.357 59.1266 145.903 59.38C146.463 59.62 146.877 59.96 147.143 60.4C147.41 60.8266 147.543 61.32 147.543 61.88C147.543 62.3466 147.403 62.8 147.123 63.24C146.843 63.6666 146.45 63.9533 145.943 64.1C146.597 64.26 147.09 64.5666 147.423 65.02C147.77 65.46 147.943 65.98 147.943 66.58C147.943 67.5 147.637 68.2333 147.023 68.78C146.41 69.3266 145.45 69.6 144.143 69.6H138.743ZM140.943 67.72H143.843C144.563 67.72 145.057 67.6066 145.323 67.38C145.603 67.14 145.743 66.8066 145.743 66.38C145.743 65.9533 145.603 65.6333 145.323 65.42C145.057 65.1933 144.563 65.08 143.843 65.08H140.943V67.72ZM140.943 63.36H143.543C144.21 63.36 144.677 63.2533 144.943 63.04C145.21 62.8133 145.343 62.5066 145.343 62.12C145.343 61.7333 145.21 61.4333 144.943 61.22C144.677 60.9933 144.21 60.88 143.543 60.88H140.943V63.36ZM158.95 69.82C157.976 69.82 157.096 69.62 156.31 69.22C155.523 68.8066 154.896 68.2 154.43 67.4C153.976 66.5866 153.75 65.5866 153.75 64.4V64C153.75 62.88 153.976 61.9333 154.43 61.16C154.896 60.3733 155.523 59.78 156.31 59.38C157.096 58.98 157.976 58.78 158.95 58.78C159.936 58.78 160.816 58.98 161.59 59.38C162.376 59.78 162.996 60.3733 163.45 61.16C163.916 61.9333 164.15 62.88 164.15 64V64.4C164.15 65.5866 163.916 66.5866 163.45 67.4C162.996 68.2 162.376 68.8066 161.59 69.22C160.816 69.62 159.936 69.82 158.95 69.82ZM158.95 67.9C159.456 67.9 159.936 67.78 160.39 67.54C160.843 67.3 161.21 66.9266 161.49 66.42C161.77 65.9 161.91 65.2266 161.91 64.4V64C161.91 63.24 161.77 62.62 161.49 62.14C161.21 61.6466 160.843 61.2866 160.39 61.06C159.936 60.82 159.456 60.7 158.95 60.7C158.443 60.7 157.963 60.82 157.51 61.06C157.056 61.2866 156.69 61.6466 156.41 62.14C156.13 62.62 155.99 63.24 155.99 64V64.4C155.99 65.2266 156.13 65.9 156.41 66.42C156.69 66.9266 157.056 67.3 157.51 67.54C157.963 67.78 158.443 67.9 158.95 67.9ZM168.246 69.6V60.88H164.746V59H173.946V60.88H170.446V69.6H168.246ZM175.346 69.6V59H184.546V69.6H182.346V60.88H177.546V69.6H175.346ZM188.639 73.82C188.439 73.82 188.239 73.8 188.039 73.76V71.84C188.239 71.88 188.439 71.9 188.639 71.9C188.932 71.9 189.172 71.8266 189.359 71.68C189.545 71.5466 189.719 71.3133 189.879 70.98C190.039 70.6466 190.225 70.1866 190.439 69.6L185.939 59H188.339L191.579 67.2L194.499 59H196.739L192.639 69.6C192.252 70.5866 191.885 71.3933 191.539 72.02C191.192 72.6466 190.799 73.1 190.359 73.38C189.919 73.6733 189.345 73.82 188.639 73.82ZM202.15 69.82C201.203 69.82 200.35 69.62 199.59 69.22C198.83 68.82 198.23 68.22 197.79 67.42C197.363 66.62 197.15 65.6133 197.15 64.4V64C197.15 62.8533 197.376 61.8933 197.83 61.12C198.296 60.3466 198.91 59.7666 199.67 59.38C200.43 58.98 201.256 58.78 202.15 58.78C203.083 58.78 203.87 58.94 204.51 59.26C205.163 59.58 205.67 60.0133 206.03 60.56C206.403 61.1066 206.643 61.72 206.75 62.4H204.51C204.376 61.9066 204.136 61.5 203.79 61.18C203.443 60.86 202.896 60.7 202.15 60.7C201.656 60.7 201.196 60.8133 200.77 61.04C200.356 61.2666 200.023 61.6266 199.77 62.12C199.516 62.6 199.39 63.2266 199.39 64V64.4C199.39 65.24 199.516 65.92 199.77 66.44C200.023 66.9466 200.356 67.32 200.77 67.56C201.196 67.7866 201.656 67.9 202.15 67.9C202.776 67.9 203.283 67.76 203.67 67.48C204.056 67.2 204.336 66.7733 204.51 66.2H206.75C206.616 66.9466 206.336 67.5933 205.91 68.14C205.496 68.6733 204.97 69.0866 204.33 69.38C203.69 69.6733 202.963 69.82 202.15 69.82ZM208.443 69.6V59H210.643V63.3H211.843L215.563 59H218.043L213.543 64.06L218.243 69.6H215.563L211.843 65.1H210.643V69.6H208.443Z" fill="white"/>
<path d="M247.21 54.6499C247.176 54.5234 247.077 54.4246 246.95 54.3903C245.729 54.0599 244.437 54.4007 243.534 55.3039L240.254 58.5844C240.133 58.7048 239.951 58.7398 239.795 58.6727L233.063 55.7876C232.906 55.7205 232.724 55.7555 232.604 55.8759L231.759 56.721C231.581 56.8992 231.6 57.1935 231.8 57.3466L236.914 61.2569C237.114 61.41 237.134 61.7043 236.955 61.8825L234.302 64.5364C234.19 64.648 234.025 64.687 233.875 64.6371L232.292 64.1094C232.142 64.0595 231.977 64.0984 231.866 64.21L231.044 65.0317C230.852 65.2234 230.892 65.5441 231.124 65.6836L234.03 67.4271C234.089 67.4623 234.138 67.5113 234.173 67.57L235.916 70.4757C236.056 70.7082 236.377 70.7477 236.568 70.556L237.39 69.7343C237.502 69.6227 237.541 69.4577 237.491 69.3079L236.963 67.725C236.913 67.5753 236.952 67.4102 237.064 67.2986L239.718 64.6447C239.896 64.4665 240.19 64.486 240.343 64.6862L244.253 69.7997C244.407 69.9999 244.701 70.0194 244.879 69.8412L245.724 68.9961C245.845 68.8756 245.88 68.694 245.813 68.5374L242.927 61.8053C242.86 61.6487 242.895 61.467 243.016 61.3465L246.296 58.0661C247.199 57.1629 247.54 55.8708 247.21 54.6499Z" fill="#FAFBFB"/>
<path d="M246.269 62.9271C245.887 62.5456 245.269 62.5456 244.888 62.9271L244.755 63.0594C244.659 63.1557 244.631 63.3011 244.685 63.4264L245.23 64.6999C245.323 64.9167 245.606 64.9711 245.772 64.8043L246.269 64.3081C246.65 63.9267 246.65 63.3084 246.269 62.9271Z" fill="#FAFBFB"/>
<path d="M238.673 55.331C238.292 54.9496 237.674 54.9496 237.292 55.331L236.796 55.8273C236.629 55.9941 236.684 56.2765 236.901 56.3694L238.174 56.9152C238.299 56.9688 238.445 56.9408 238.541 56.8444L238.673 56.7121C239.055 56.3308 239.055 55.7125 238.673 55.331Z" fill="#FAFBFB"/>
</g>
<defs>
<filter id="filter0_dd_5181_36373" x="0" y="0.599976" width="335" height="128" filterUnits="userSpaceOnUse" color-interpolation-filters="sRGB">
<feFlood flood-opacity="0" result="BackgroundImageFix"/>
<feColorMatrix in="SourceAlpha" type="matrix" values="0 0 0 0 0 0 0 0 0 0 0 0 0 0 0 0 0 0 127 0" result="hardAlpha"/>
<feOffset dy="2"/>
<feGaussianBlur stdDeviation="12"/>
<feColorMatrix type="matrix" values="0 0 0 0 0 0 0 0 0 0 0 0 0 0 0 0 0 0 0.04 0"/>
<feBlend mode="normal" in2="BackgroundImageFix" result="effect1_dropShadow_5181_36373"/>
<feColorMatrix in="SourceAlpha" type="matrix" values="0 0 0 0 0 0 0 0 0 0 0 0 0 0 0 0 0 0 127 0" result="hardAlpha"/>
<feOffset/>
<feGaussianBlur stdDeviation="1"/>
<feColorMatrix type="matrix" values="0 0 0 0 0 0 0 0 0 0 0 0 0 0 0 0 0 0 0.04 0"/>
<feBlend mode="normal" in2="effect1_dropShadow_5181_36373" result="effect2_dropShadow_5181_36373"/>
<feBlend mode="normal" in="SourceGraphic" in2="effect2_dropShadow_5181_36373" result="shape"/>
</filter>
<linearGradient id="paint0_linear_5181_36373" x1="358.338" y1="119.306" x2="-21.7528" y2="83.1774" gradientUnits="userSpaceOnUse">
<stop stop-color="#A0D200"/>
<stop offset="0.491399" stop-color="#9ACA00"/>
<stop offset="1" stop-color="#A0D200"/>
</linearGradient>
</defs>
</svg>
