<svg width="323" height="58" viewBox="0 0 323 58" fill="none" xmlns="http://www.w3.org/2000/svg">
<path d="M48.31 13.404C46.4025 11.5657 44.2298 10.0214 41.8639 8.82252C40.7571 6.41133 39.0312 4.33345 36.8602 2.79839C34.6892 1.26333 32.15 0.325403 29.4987 0.0793206C27.4261 -0.128634 25.3327 0.0732933 23.3387 0.673478C21.3448 1.27366 19.4896 2.26027 17.8799 3.5766C17.0989 4.1662 16.3808 4.83422 15.7371 5.57007C15.0799 6.00983 14.3479 6.32684 13.5767 6.5056C9.98481 7.50233 2.46731 5.88484 0.675757 5.25533C0.563831 5.22516 0.445083 5.23196 0.337369 5.2747C0.229655 5.31745 0.138804 5.39382 0.0784184 5.49237C0.0180331 5.59093 -0.00865069 5.70635 0.00246464 5.82126C0.01358 5.93617 0.0618939 6.04438 0.14006 6.12965C1.79794 7.78675 3.06396 9.79087 3.84609 11.9963C4.90873 15.2925 4.11835 19.2445 3.31039 22.3133C0.6055 32.6128 3.89879 41.662 12.0925 46.5582C13.4023 49.3674 15.4206 51.7909 17.9508 53.5928C20.481 55.3947 23.4368 56.5135 26.5303 56.8402C27.3664 56.9449 28.2082 56.9975 29.0508 56.9976C31.9089 57.0439 34.7388 56.4302 37.3185 55.2045C39.8983 53.9787 42.1575 52.1743 43.9189 49.933C45.9873 47.2762 47.0729 43.9908 46.9926 40.6303C50.4001 38.7155 52.8328 35.0346 53.6846 30.4619C54.2487 27.3979 54.054 24.2431 53.1175 21.2708C52.181 18.2985 50.5309 15.5983 48.31 13.404ZM6.35776 23.1089C7.44675 18.9472 8.36012 13.7187 6.12068 9.28593C8.46193 9.7704 10.864 9.89423 13.243 9.65313C12.4142 11.9533 12.114 14.4092 12.3648 16.8401C12.843 21.1327 14.765 25.1383 17.8185 28.2062C20.0344 30.4691 22.4602 32.5183 25.0637 34.3265C28.7259 36.9494 30.7369 38.462 30.4032 41.6445C30.2814 42.4518 29.9523 43.214 29.4476 43.8574C28.9429 44.5007 28.2799 45.0034 27.5227 45.3167C24.5895 46.7593 20.2423 46.733 16.4484 45.2467C7.47308 41.4871 3.69678 33.2248 6.35776 23.1089ZM28.9015 48.0882C30.1375 47.5531 31.2129 46.7079 32.0226 45.6351C32.8323 44.5624 33.3485 43.2988 33.5209 41.968C34.039 36.9844 30.7369 34.58 26.8816 31.7734C24.441 30.0834 22.1653 28.169 20.0842 26.0554C17.5273 23.5055 15.9065 20.1734 15.4824 16.5952C15.1704 14.6122 15.4041 12.582 16.1588 10.7207C16.9134 8.85935 18.1608 7.23651 19.7681 6.02474C21.0776 4.94257 22.5914 4.13212 24.2202 3.64112C25.8491 3.15012 27.5602 2.98847 29.2528 3.16569C32.0418 3.39695 34.6541 4.61972 36.6122 6.61051C33.5768 5.77085 30.3387 6.05345 27.4963 7.40612C26.3415 8.00283 25.3722 8.90203 24.6928 10.0067C24.0134 11.1114 23.6497 12.3797 23.641 13.675C23.4917 18.9209 27.7949 21.9898 32.3529 25.2335C34.6883 26.798 36.8753 28.5715 38.8868 30.5319C41.7936 33.5483 43.4359 36.6521 43.7784 39.8347C44.0773 42.7675 43.2348 45.7028 41.4248 48.0358C38.272 52.2413 32.7041 54.4096 26.9343 53.7101C23.2096 53.3088 19.7672 51.5454 17.2739 48.7615C21.3576 49.9068 25.696 49.6707 28.9015 48.0882ZM26.7938 13.7974C26.776 13.0487 26.9742 12.3107 27.3649 11.6707C27.7556 11.0307 28.3224 10.5156 28.9981 10.1865C30.2541 9.53124 31.6552 9.2005 33.073 9.22472C37.1303 9.22472 41.9868 11.5242 46.0881 15.616C47.942 17.4556 49.3186 19.7166 50.0989 22.2041C50.8792 24.6915 51.0398 27.3306 50.567 29.8936C50.1216 32.7453 48.6708 35.3458 46.4745 37.2292C45.4997 33.8854 43.6864 30.8435 41.2052 28.3898C39.0639 26.2857 36.7294 24.386 34.2322 22.7155C30.1573 19.8477 26.6884 17.3646 26.7938 13.7974Z" fill="#3D3D3D"/>
<path d="M67.2619 42.0067C69.5304 43.0862 72.0157 43.6579 74.5378 43.6806C78.5382 43.6806 80.5607 41.621 80.5607 38.7991C80.5607 35.6528 78.6008 34.1191 74.8599 31.7879C68.837 28.186 66.537 23.6288 66.537 19.7113C66.537 12.7878 71.2623 7.00367 80.4354 7.00367C82.8447 6.95029 85.2301 7.48007 87.3802 8.54607L85.9841 15.7588C84.3077 14.7623 82.3784 14.2489 80.4175 14.2777C76.7483 14.2777 74.9763 16.4599 74.9763 18.7736C74.9763 21.3414 76.2829 22.691 81.0082 25.513C86.9058 29.0186 89 33.3479 89 37.9051C89 45.7926 83.0397 50.9984 74.4482 50.9984C71.5342 51.0353 68.6484 50.4366 66 49.2456L67.2619 42.0067Z" fill="#3D3D3D"/>
<path d="M98.6295 50V33.5386L89 7H98.0965L101.028 17.2775C101.872 20.0211 102.716 23.2088 103.373 26.3966H103.497C104.022 23.2698 104.732 20.143 105.514 17.0859L108.117 7H117L107.14 33.2251V50H98.6295Z" fill="#3D3D3D"/>
<path d="M120 50V7H127.816L134.583 23.8447C135.952 27.1631 138.042 32.7112 139.278 36.4128H139.402C139.144 31.8838 138.513 24.4195 138.513 16.5111V7H146V50H138.184L131.479 33.6692C129.767 29.4313 128.283 25.1082 127.034 20.7178H126.9C127.158 25.0727 127.487 31.6921 127.487 40.367V50H120Z" fill="#3D3D3D"/>
<path d="M170.663 31.1249H160.605V42.7303H172V50H152V7H171.255V14.2697H160.605V24.16H170.663V31.1249Z" fill="#3D3D3D"/>
<path d="M177 7.86711C180.075 7.2984 183.198 7.00813 186.329 7C191.025 7 195.239 7.70234 198.073 10.1736C200.906 12.6449 201.637 15.3763 201.637 19.0702C201.708 21.3006 201.101 23.5018 199.894 25.3988C198.686 27.2957 196.931 28.8042 194.847 29.7356V29.8657C197.85 31.071 199.356 33.7417 200.193 38.372C201.084 43.1411 202.216 48.4132 203 50H194.09C193.511 48.7947 192.53 44.4765 191.871 39.7074C191.087 34.4353 189.724 32.9179 186.917 32.9179H185.607V50H177.062L177 7.86711ZM185.545 26.536H187.113C190.838 26.536 192.923 23.6138 192.923 19.8679C192.923 16.122 191.417 13.6421 187.639 13.512C186.931 13.4833 186.223 13.5713 185.545 13.7721V26.536Z" fill="#3D3D3D"/>
<path d="M230 49.4592C227.144 50.4541 224.146 50.9745 221.123 51C216.135 51 212.403 49.5905 209.561 46.7015C205.855 43.1122 203.875 36.7038 204.006 29.2624C204.198 13.548 213.075 7.00829 222.318 7.00829C224.708 6.93297 227.086 7.37179 229.294 8.29524L227.89 15.5353C226.347 14.8382 224.663 14.5115 222.972 14.581C217.225 14.581 212.691 18.4856 212.691 29.7089C212.691 40.1006 216.711 43.8825 220.67 43.8825C221.232 43.9079 221.794 43.8429 222.335 43.69V33.237H218.437V26.3997H230V49.4592Z" fill="#3D3D3D"/>
<path d="M254.688 31.1249H244.616V42.7303H256V50H236V7H255.281V14.2697H244.616V24.16H254.688V31.1249Z" fill="#3D3D3D"/>
<path d="M265.722 14.7255H258V7H282V14.7255H274.215V50H265.722V14.7255Z" fill="#3D3D3D"/>
<path d="M294 7V50H286V7H294Z" fill="#3D3D3D"/>
<path d="M321.559 49.9632C319.512 50.7247 317.337 51.0726 315.158 50.9874C304.199 50.9874 299 41.9449 299 29.6371C299 13.3465 307.935 7 316.23 7C319.146 7 321.178 7.57775 322 8.1555L320.607 15.211C319.406 14.6107 318.08 14.3105 316.741 14.3356C312.053 14.3356 307.806 18.4324 307.806 29.1469C307.806 39.4676 311.672 43.503 316.741 43.503C318.096 43.4787 319.441 43.2636 320.737 42.864L321.559 49.9632Z" fill="#3D3D3D"/>
</svg>
