<svg width="156" height="28" viewBox="0 0 156 28" fill="none" xmlns="http://www.w3.org/2000/svg">
<path d="M23.414 6.84926C22.4895 5.97848 21.4365 5.24699 20.2898 4.67909C19.7534 3.53695 18.9169 2.55269 17.8647 1.82555C16.8125 1.09842 15.5819 0.654138 14.2969 0.537573C13.2924 0.439068 12.2778 0.534718 11.3114 0.819016C10.345 1.10331 9.44584 1.57065 8.66569 2.19418C8.28716 2.47346 7.93914 2.78989 7.62714 3.13846C7.30864 3.34676 6.95386 3.49693 6.58009 3.5816C4.83925 4.05373 1.19581 3.28756 0.327513 2.98937C0.273267 2.97508 0.215714 2.97829 0.16351 2.99854C0.111305 3.01879 0.0672728 3.05497 0.0380064 3.10165C0.00873994 3.14833 -0.00419265 3.20301 0.00119452 3.25744C0.00658168 3.31187 0.0299976 3.36313 0.0678819 3.40352C0.871393 4.18846 1.48498 5.13778 1.86405 6.18246C2.37907 7.74381 1.996 9.61579 1.60442 11.0695C0.293462 15.9482 1.88959 20.2346 5.86077 22.5539C6.49559 23.8845 7.47378 25.0325 8.70006 25.8861C9.92634 26.7396 11.3589 27.2696 12.8582 27.4243C13.2634 27.4739 13.6714 27.4988 14.0798 27.4988C15.465 27.5208 16.8366 27.2301 18.0868 26.6495C19.3371 26.0689 20.4321 25.2142 21.2858 24.1525C22.2883 22.894 22.8144 21.3377 22.7755 19.7459C24.427 18.8389 25.606 17.0953 26.0188 14.9293C26.2922 13.4779 26.1979 11.9836 25.744 10.5757C25.2901 9.16773 24.4903 7.88868 23.414 6.84926ZM3.08136 11.4463C3.60915 9.47497 4.05183 6.99835 2.96646 4.8986C4.10117 5.12808 5.26535 5.18674 6.41835 5.07254C6.01666 6.16207 5.87121 7.32541 5.99272 8.47687C6.22452 10.5102 7.15603 12.4076 8.63592 13.8608C9.70988 14.9327 10.8856 15.9034 12.1474 16.7599C13.9223 18.0024 14.897 18.7188 14.7353 20.2263C14.6762 20.6087 14.5167 20.9698 14.2721 21.2745C14.0275 21.5793 13.7062 21.8174 13.3392 21.9658C11.9176 22.6491 9.81065 22.6367 7.9719 21.9326C3.62191 20.1518 1.79169 16.2381 3.08136 11.4463ZM14.0074 23.2786C14.6065 23.0252 15.1277 22.6248 15.5201 22.1166C15.9125 21.6085 16.1627 21.01 16.2463 20.3796C16.4974 18.0189 14.897 16.88 13.0285 15.5506C11.8456 14.75 10.7426 13.8432 9.73404 12.842C8.49483 11.6342 7.70925 10.0558 7.50372 8.3609C7.35249 7.42156 7.46579 6.4599 7.83154 5.57822C8.19729 4.69654 8.80181 3.92782 9.58082 3.35382C10.2155 2.84122 10.9492 2.45732 11.7386 2.22474C12.5281 1.99216 13.3574 1.91559 14.1777 1.99954C15.5294 2.10908 16.7955 2.68829 17.7445 3.6313C16.2734 3.23356 14.704 3.36742 13.3264 4.00816C12.7667 4.29081 12.2969 4.71675 11.9676 5.24003C11.6384 5.7633 11.4621 6.36409 11.4579 6.97765C11.3855 9.46255 13.4711 10.9162 15.6802 12.4527C16.8121 13.1938 17.872 14.0339 18.8469 14.9625C20.2558 16.3913 21.0517 17.8615 21.2177 19.369C21.3625 20.7583 20.9542 22.1487 20.077 23.2538C18.5489 25.2459 15.8504 26.2729 13.054 25.9416C11.2488 25.7515 9.58038 24.9162 8.372 23.5975C10.3512 24.1401 12.4539 24.0283 14.0074 23.2786ZM12.9859 7.03561C12.9773 6.68096 13.0734 6.33137 13.2627 6.02821C13.4521 5.72506 13.7268 5.48108 14.0542 5.32519C14.663 5.0148 15.3421 4.85813 16.0292 4.86961C17.9956 4.86961 20.3494 5.95882 22.3371 7.89705C23.2356 8.76843 23.9028 9.83946 24.281 11.0177C24.6592 12.196 24.737 13.4461 24.5078 14.6601C24.292 16.0109 23.5888 17.2427 22.5244 18.1349C22.052 16.551 21.1731 15.1101 19.9706 13.9478C18.9328 12.9511 17.8013 12.0513 16.591 11.26C14.6161 9.90154 12.9348 8.72535 12.9859 7.03561Z" fill="#3086EF"/>
<path d="M32.5941 20.1561C33.673 20.6662 34.855 20.9364 36.0545 20.9471C37.9571 20.9471 38.9191 19.9739 38.9191 18.6403C38.9191 17.1535 37.9869 16.4287 36.2078 15.3271C33.3432 13.6249 32.2494 11.4713 32.2494 9.62008C32.2494 6.34829 34.4967 3.61489 38.8595 3.61489C40.0053 3.58966 41.1398 3.84002 42.1624 4.34377L41.4984 7.75226C40.7011 7.28133 39.7835 7.03874 38.851 7.05234C37.1059 7.05234 36.2631 8.08358 36.2631 9.17694C36.2631 10.3904 36.8845 11.0282 39.1319 12.3618C41.9368 14.0184 42.9328 16.0643 42.9328 18.2178C42.9328 21.9452 40.0981 24.4053 36.012 24.4053C34.626 24.4227 33.2535 24.1398 31.994 23.577L32.5941 20.1561Z" fill="#3086EF"/>
<path d="M47.887 24.2229V16.3955L43.2731 3.77628H47.6316L49.0362 8.66329C49.4406 9.96786 49.8449 11.4836 50.1599 12.9994H50.2195C50.4706 11.5126 50.8111 10.0258 51.1857 8.57216L52.4328 3.77628H56.6891L51.9646 16.2464V24.2229H47.887Z" fill="#3086EF"/>
<path d="M58.0652 24.2229V3.77628H61.8065L65.0456 11.786C65.7011 13.3639 66.7014 16.002 67.293 17.7622H67.3526C67.2291 15.6086 66.9269 12.0593 66.9269 8.29883V3.77628H70.5108V24.2229H66.7694L63.5602 16.4576C62.7405 14.4425 62.0301 12.3868 61.432 10.2992H61.3681C61.4916 12.3699 61.6491 15.5175 61.6491 19.6424V24.2229H58.0652Z" fill="#3086EF"/>
<path d="M82.5809 15.2524H77.8095V20.7731H83.2151V24.2312H73.7277V3.77628H82.8618V7.23446H77.8095V11.9392H82.5809V15.2524Z" fill="#3086EF"/>
<path d="M85.6754 4.07033C87.1445 3.79871 88.6364 3.66007 90.1318 3.65618C92.3749 3.65618 94.3881 3.99164 95.7417 5.17197C97.0952 6.3523 97.4442 7.65688 97.4442 9.42116C97.4781 10.4865 97.1885 11.5378 96.6116 12.4439C96.0348 13.3499 95.1962 14.0704 94.2009 14.5152V14.5774C95.6353 15.153 96.3546 16.4286 96.7547 18.6402C97.1803 20.918 97.7208 23.4361 98.0954 24.194H93.8391C93.5624 23.6183 93.0942 21.5558 92.7792 19.278C92.4047 16.7599 91.7534 16.0352 90.4127 16.0352H89.787V24.194H85.7052L85.6754 4.07033ZM89.7572 12.987H90.5063C92.2855 12.987 93.2815 11.5913 93.2815 9.8022C93.2815 8.01307 92.5621 6.82859 90.7575 6.76646C90.4192 6.75276 90.0811 6.79477 89.7572 6.89071V12.987Z" fill="#3086EF"/>
<path d="M111.561 23.6762C110.167 24.1469 108.704 24.393 107.228 24.4051C104.794 24.4051 102.972 23.7383 101.584 22.3716C99.7756 20.6736 98.8094 17.642 98.8732 14.1217C98.9669 6.68772 103.3 3.59399 107.812 3.59399C108.978 3.55836 110.139 3.76595 111.217 4.20281L110.531 7.62785C109.778 7.29809 108.956 7.14352 108.131 7.17641C105.326 7.17641 103.113 9.02354 103.113 14.333C103.113 19.2489 105.075 21.038 107.007 21.038C107.281 21.05 107.556 21.0193 107.82 20.9469V16.002H105.917V12.7675H111.561V23.6762Z" fill="#3086EF"/>
<path d="M123.225 15.2524H118.453V20.7731H123.846V24.2312H114.371V3.77628H123.506V7.23446H118.453V11.9392H123.225V15.2524Z" fill="#3086EF"/>
<path d="M128.761 7.4498H125.049V3.77628H136.584V7.4498H132.843V24.2229H128.761V7.4498Z" fill="#3086EF"/>
<path d="M142.434 3.77628V24.2229H138.352V3.77628H142.434Z" fill="#3086EF"/>
<path d="M155.783 23.9205C154.776 24.2808 153.706 24.4454 152.633 24.4051C147.24 24.4051 144.682 20.1269 144.682 14.304C144.682 6.5966 149.079 3.59399 153.161 3.59399C154.595 3.59399 155.596 3.86733 156 4.14067L155.315 7.47873C154.724 7.19472 154.071 7.0527 153.412 7.06458C151.105 7.06458 149.015 9.00282 149.015 14.072C149.015 18.9549 150.918 20.8641 153.412 20.8641C154.079 20.8526 154.741 20.7509 155.379 20.5618L155.783 23.9205Z" fill="#3086EF"/>
</svg>
