<svg width="151" height="141" viewBox="0 0 151 141" fill="none" xmlns="http://www.w3.org/2000/svg">
<g filter="url(#filter0_d_5168_4415)">
<path d="M127.189 52.8455L48.9998 25L23.6937 88.1158L101.883 115.961L127.189 52.8455Z" fill="white"/>
<path d="M121.839 55.2943L53 31L30.8676 85.6915L99.7065 109.986L121.839 55.2943Z" fill="#7D930E"/>
<path d="M102.839 110.176L30.4252 84.4615L52.3683 29.9285L124.782 55.6433L102.839 110.176ZM32.5857 83.5657L101.851 108.164L122.623 56.5409L53.3574 31.9431L32.5857 83.5657Z" fill="#030306"/>
<mask id="mask0_5168_4415" style="mask-type:luminance" maskUnits="userSpaceOnUse" x="31" y="31" width="91" height="80">
<path d="M121.78 55.4605L52.9998 31L31.0172 85.7519L99.7972 110.212L121.78 55.4605Z" fill="white"/>
</mask>
<g mask="url(#mask0_5168_4415)">
<path d="M64.7136 111.539C85.2067 114.534 104.37 100.593 107.516 80.4019C110.662 60.211 96.5991 41.4157 76.106 38.4216C55.6129 35.4274 36.4497 49.3681 33.3038 69.559C30.1578 89.75 44.2205 108.545 64.7136 111.539Z" fill="#CFEA4A"/>
<path d="M45.7029 100.412C41.8053 97.1077 38.6306 93.0759 36.38 88.4886C32.0335 79.6311 31.6503 69.7685 35.2987 60.7167C42.8308 42.0299 65.4137 32.6587 85.6334 39.8273C95.4287 43.299 103.218 50.0891 107.565 58.9466C111.911 67.8042 112.294 77.6668 108.646 86.7185C104.998 95.7703 97.7518 102.93 88.2434 106.875C78.7351 110.821 68.1046 111.081 58.3093 107.609C53.5866 105.936 49.3306 103.489 45.7024 100.415L45.7029 100.412ZM97.606 47.6678C94.0655 44.6654 89.9131 42.2801 85.3043 40.6459C65.5717 33.6508 43.5355 42.7949 36.1859 61.0317C32.6247 69.8669 33 79.4893 37.2404 88.1334C41.4829 96.7761 49.0829 103.401 58.6404 106.789C68.1993 110.179 78.5728 109.923 87.8521 106.074C97.1299 102.223 104.2 95.2374 107.76 86.4054C111.321 77.5702 110.946 67.9479 106.706 59.3037C104.51 54.8275 101.412 50.892 97.606 47.6678Z" fill="#030306"/>
<path d="M93.977 54.5405C93.0511 54.2127 92.0477 54.1415 90.9936 54.3227L90.9702 54.3047L90.4316 54.4399C86.1607 55.5187 81.682 60.4702 79.0187 67.0555L78.7773 67.6586L78.7787 67.6718C77.2853 71.5951 76.6653 75.5482 77.0326 78.8254C77.4343 82.4045 78.9793 84.8448 81.3836 85.695C86.2387 87.4117 92.8107 81.9155 96.3419 73.1799C99.8731 64.4443 98.8355 56.2578 93.977 54.5405Z" fill="#030306"/>
<path d="M81.8552 84.4013C78.8396 83.3164 77.9173 77.9163 79.401 71.8327C79.9962 72.8464 80.8306 73.5764 81.8676 73.9499C85.379 75.214 89.8545 71.8608 92.0553 66.3141C93.5346 62.5871 93.5721 58.8717 92.2896 56.4845C92.4895 56.5177 92.6855 56.5652 92.8731 56.6326C96.14 57.8076 97.4236 64.6454 94.1274 72.9505C90.8312 81.2556 85.1221 85.5763 81.8552 84.4013Z" fill="white"/>
<path d="M67.977 46.5405C67.0511 46.2127 66.0477 46.1415 64.9936 46.3227L64.9702 46.3047L64.4316 46.4399C60.1607 47.5187 55.682 52.4702 53.0187 59.0555L52.7773 59.6586L52.7787 59.6718C51.2853 63.5951 50.6653 67.5483 51.0326 70.8254C51.4343 74.4045 52.9793 76.8448 55.3836 77.695C60.2387 79.4117 66.8107 73.9155 70.3419 65.1799C73.8731 56.4443 72.8355 48.2578 67.977 46.5405Z" fill="#030306"/>
<path d="M56.8552 75.4013C53.8396 74.3164 52.9173 68.9163 54.401 62.8327C54.9962 63.8464 55.8306 64.5764 56.8676 64.9499C60.379 66.214 64.8545 62.8608 67.0553 57.3141C68.5346 53.5871 68.5721 49.8717 67.2896 47.4845C67.4895 47.5177 67.6855 47.5652 67.8731 47.6326C71.14 48.8076 72.4236 55.6454 69.1274 63.9505C65.8311 72.2556 60.1221 76.5763 56.8552 75.4013Z" fill="white"/>
<path d="M64.7872 44.0636C65.8428 43.4059 67.2094 43.2498 68.5467 43.4409C69.1476 43.5242 69.7453 43.6772 70.305 43.8916C71.1022 44.1908 71.8255 44.6029 72.3846 45.0933C72.7333 45.3979 73.2893 45.3763 73.6319 45.0399C73.9731 44.7053 73.9678 44.1888 73.6191 43.8842C72.7414 43.117 71.5676 42.4899 70.2828 42.1127C69.7018 41.9403 69.0989 41.821 68.4918 41.7589C68.416 41.7524 68.3417 41.744 68.2659 41.7374C66.7228 41.6201 65.1568 41.895 63.8409 42.7104C63.4301 42.9652 63.3083 43.475 63.5685 43.8471C63.8304 44.2206 64.3743 44.3139 64.7884 44.0588L64.7872 44.0636Z" fill="#030306"/>
<path d="M77.039 48.3033C77.6102 48.3502 78.1219 47.9607 78.1853 47.4339C78.2464 46.9053 77.834 46.4398 77.2646 46.3908C76.6952 46.3418 76.1817 46.7334 76.1183 47.2602C76.0572 47.7888 76.4696 48.2543 77.039 48.3033Z" fill="#030306"/>
<path d="M90.592 51.6517C91.3937 51.6569 92.2705 51.8307 93.123 52.1401C93.7228 52.3537 94.3081 52.6384 94.8467 52.9798C96.0467 53.7333 97.0133 54.7695 97.3647 55.9749C97.5028 56.4461 98.0041 56.7414 98.486 56.6325C98.9665 56.5266 99.2457 56.06 99.1076 55.5888C98.6681 54.0891 97.6288 52.8274 96.3203 51.8809C96.2565 51.8335 96.1914 51.7892 96.1263 51.7448C95.5994 51.3817 95.0355 51.0667 94.4481 50.8082C93.1529 50.2322 91.7626 49.9153 90.5025 49.9065C90.003 49.904 89.6183 50.2914 89.6428 50.7703C89.6659 51.2523 90.093 51.644 90.5902 51.6473L90.592 51.6517Z" fill="#030306"/>
<path d="M87.4408 52.2433C87.9786 52.4366 88.5721 52.1914 88.7697 51.697C88.9655 51.2004 88.689 50.6423 88.1535 50.4474C87.6157 50.2541 87.0221 50.4992 86.8246 50.9936C86.6288 51.4902 86.9053 52.0484 87.4408 52.2433Z" fill="#030306"/>
<path d="M61.1785 102.802C64.7676 104.122 69.2161 101.024 71.3078 95.7492C71.7937 94.5247 72.1077 93.2797 72.2483 92.0463L72.2561 92.041L72.2746 91.8146C72.6376 88.006 71.209 84.9332 68.6332 83.9857C68.0711 83.7784 67.4765 83.6815 66.8695 83.6899C64.7872 83.7179 62.537 84.975 60.727 87.2008C60.6516 87.2946 60.5761 87.3884 60.5022 87.4841L60.3649 87.6625L60.3654 87.6707C59.6177 88.6816 58.9903 89.8106 58.5044 91.0351C56.4142 96.3116 57.5864 101.478 61.177 102.8L61.1785 102.802ZM62.1369 88.2865C62.1652 88.2503 62.1929 88.2173 62.2226 88.183C62.2528 88.1454 62.2829 88.1079 62.3146 88.0722C62.3443 88.0379 62.372 88.0048 62.4017 87.9705C62.4334 87.9348 62.465 87.8992 62.4947 87.8648C62.5244 87.8304 62.5536 87.7993 62.5848 87.7668C62.6145 87.7324 62.6476 87.6986 62.6773 87.6643C62.7084 87.6318 62.7377 87.6006 62.7688 87.5681C62.8 87.5356 62.8312 87.5031 62.8623 87.4706C62.8915 87.4394 62.9242 87.4088 62.9548 87.3795C62.9875 87.3488 63.0186 87.3163 63.0493 87.287C63.08 87.2577 63.1107 87.2284 63.1414 87.1991C63.174 87.1684 63.2047 87.1391 63.2373 87.1085C63.268 87.0792 63.2982 87.053 63.3304 87.0256C63.3625 86.9981 63.3952 86.9675 63.4273 86.94C63.4575 86.9139 63.4897 86.8864 63.5199 86.8603C63.552 86.8328 63.5842 86.8054 63.6178 86.7798C63.648 86.7536 63.6797 86.7293 63.7114 86.705C63.745 86.6794 63.7772 86.652 63.8088 86.6277C63.8405 86.6034 63.8722 86.5792 63.9039 86.5549C63.937 86.5324 63.9692 86.505 64.0023 86.4826C64.0355 86.4601 64.0666 86.439 64.0983 86.4147C64.1315 86.3923 64.1646 86.3699 64.1978 86.3475C64.229 86.3264 64.2602 86.3053 64.2933 86.2828C64.3264 86.2604 64.3576 86.2393 64.3923 86.2187C64.4235 86.1976 64.4561 86.1784 64.4888 86.1591C64.52 86.138 64.5561 86.1193 64.5887 86.1001C64.6199 86.079 64.6521 86.0629 64.6828 86.045C64.7155 86.0257 64.7496 86.0083 64.7823 85.9891C64.813 85.9712 64.8452 85.9551 64.8774 85.939C64.9115 85.9216 64.9437 85.9056 64.9778 85.8882C65.01 85.8721 65.0403 85.8574 65.0724 85.8413C65.1046 85.8252 65.1402 85.8097 65.1724 85.7936C65.2027 85.7789 65.2363 85.7647 65.268 85.7518C65.3017 85.7376 65.3353 85.7233 65.3671 85.7104C65.3988 85.6976 65.4305 85.6847 65.4622 85.6718C65.4958 85.6576 65.529 85.6465 65.5622 85.6355C65.5919 85.6239 65.6251 85.6129 65.6549 85.6013C65.6881 85.5903 65.7212 85.5792 65.7544 85.5682C65.7856 85.5585 65.8169 85.5488 65.8461 85.5404C65.8793 85.5293 65.912 85.5215 65.9467 85.5123C65.9759 85.5039 66.0086 85.496 66.0379 85.4876C66.0706 85.4798 66.1033 85.4719 66.1375 85.4659C66.1682 85.4594 66.1975 85.451 66.2278 85.4476C66.2619 85.4416 66.2927 85.4351 66.3269 85.4291C66.3557 85.4239 66.3864 85.4173 66.4167 85.414C66.4489 85.4093 66.4811 85.4046 66.5167 85.4005C66.547 85.3971 66.5758 85.3919 66.6041 85.3898C66.6378 85.387 66.6715 85.3842 66.7032 85.3827C66.7316 85.3807 66.7618 85.3773 66.7882 85.3766C66.8199 85.3751 66.8551 85.3741 66.8868 85.3726C66.9152 85.3706 66.943 85.3717 66.9713 85.3697C67.0045 85.37 67.0377 85.3704 67.069 85.372C67.0968 85.3732 67.1232 85.3725 67.151 85.3736C67.1857 85.3758 67.2184 85.3793 67.2512 85.3829C67.2771 85.3853 67.3049 85.3864 67.3308 85.3889C67.3635 85.3924 67.3977 85.3978 67.4319 85.4032C67.4558 85.407 67.4817 85.4094 67.5072 85.4151C67.5414 85.4205 67.577 85.4277 67.6107 85.4363C67.6327 85.4414 67.6567 85.4451 67.6801 85.4521C67.7192 85.4599 67.7559 85.4722 67.7945 85.4831C67.8131 85.4877 67.8316 85.4922 67.8502 85.4968C67.9054 85.5136 67.9621 85.5323 68.0169 85.5523C68.0716 85.5723 68.1259 85.5955 68.1802 85.6187C68.1983 85.6264 68.2144 85.6355 68.2325 85.6432C68.2687 85.6587 68.3044 85.6773 68.3386 85.6941C68.3596 85.7055 68.3792 85.7151 68.3983 85.7279C68.4291 85.7441 68.4614 85.7622 68.4902 85.7798C68.5113 85.7912 68.5318 85.8059 68.5509 85.8186C68.5798 85.8362 68.6101 85.8556 68.637 85.8745C68.6575 85.8891 68.6781 85.9037 68.6986 85.9183C68.7256 85.9372 68.7525 85.9561 68.7809 85.9768C68.8014 85.9915 68.8215 86.0093 68.8415 86.0271C68.868 86.0491 68.8929 86.0693 68.9194 86.0914C68.9394 86.1092 68.9595 86.127 68.9796 86.1448C69.0041 86.1681 69.029 86.1883 69.0535 86.2117C69.0736 86.2295 69.0932 86.2505 69.1113 86.2696C69.1358 86.293 69.1583 86.3177 69.1828 86.3411C69.2024 86.362 69.2205 86.3812 69.2382 86.4034C69.2587 86.4295 69.2832 86.4528 69.3053 86.4807C69.3229 86.503 69.3406 86.5253 69.3582 86.5476C69.3788 86.5736 69.4008 86.6015 69.4214 86.6275C69.4391 86.6498 69.4567 86.6721 69.4739 86.6975C69.4959 86.7254 69.5145 86.7527 69.5347 86.7819C69.5523 86.8042 69.5675 86.831 69.5832 86.8546C69.6033 86.8838 69.6215 86.9143 69.6416 86.9435C69.6587 86.969 69.6739 86.9958 69.6877 87.0207C69.7058 87.0512 69.724 87.0817 69.7421 87.1123C69.7574 87.1391 69.7726 87.1658 69.7858 87.194C69.802 87.2258 69.8202 87.2563 69.8364 87.2881C69.8497 87.3162 69.8644 87.3462 69.8796 87.373C69.8958 87.4048 69.9101 87.438 69.9277 87.4717C69.9425 87.5016 69.9538 87.531 69.9685 87.561C69.9828 87.5942 69.997 87.6273 70.0127 87.6623C70.0255 87.6936 70.0383 87.7249 70.0511 87.7562C70.0634 87.7906 70.0777 87.8238 70.0914 87.8601C70.1023 87.8927 70.115 87.924 70.1273 87.9585C70.1397 87.9929 70.1534 88.0293 70.1638 88.065C70.1746 88.0977 70.185 88.1334 70.1958 88.166C70.2061 88.2018 70.218 88.2395 70.2283 88.2753C70.2387 88.311 70.2476 88.345 70.2579 88.3808C70.2683 88.4165 70.2767 88.4537 70.2885 88.4913C70.2969 88.5284 70.3073 88.5642 70.3157 88.6013C70.3241 88.6384 70.3325 88.6755 70.3424 88.7145C70.3508 88.7516 70.3587 88.7918 70.3671 88.8289C70.3755 88.866 70.382 88.9045 70.3899 88.9447C70.3963 88.9832 70.4043 89.0235 70.4107 89.0619C70.4172 89.1003 70.4236 89.1387 70.4301 89.1771C70.4361 89.2187 70.4425 89.2572 70.4485 89.2988C70.453 89.3385 70.4594 89.3769 70.464 89.4167C70.4699 89.4583 70.4744 89.498 70.4785 89.5409C70.483 89.5807 70.4875 89.6204 70.49 89.6615C70.494 89.7044 70.4981 89.7473 70.5021 89.7902C70.5047 89.8313 70.5092 89.871 70.5117 89.9121C70.5157 89.955 70.5178 89.9993 70.5199 90.0435C70.5225 90.0846 70.525 90.1256 70.5256 90.168C70.5277 90.2122 70.5298 90.2565 70.5299 90.302C70.5305 90.3444 70.5311 90.3868 70.5317 90.4292C70.5318 90.4747 70.5339 90.519 70.534 90.5645C70.5346 90.6069 70.5333 90.6506 70.5319 90.6943C70.5321 90.7399 70.5322 90.7854 70.5304 90.8323C70.529 90.876 70.5277 90.9197 70.5259 90.9666C70.524 91.0134 70.5227 91.0571 70.5209 91.104C70.519 91.1509 70.5158 91.1959 70.5139 91.2428C70.5106 91.2878 70.5088 91.3347 70.5055 91.3797C70.5041 91.3892 70.5026 91.3988 70.5027 91.4101C68.6446 93.7341 66.347 94.8178 64.6023 94.1753C62.8591 93.5347 61.8961 91.2508 62.117 88.3257C62.1233 88.3186 62.1282 88.3096 62.1345 88.3024L62.1369 88.2865ZM60.4714 91.0165C60.9188 93.3183 62.1645 95.0515 63.9839 95.7205C65.8034 96.3894 67.9308 95.9001 69.8553 94.4697C69.7802 94.6888 69.7017 94.9074 69.6164 95.1249C67.9292 99.3785 64.35 102.179 61.7958 101.24C59.2416 100.301 58.5086 95.9131 60.1958 91.6594C60.2831 91.4406 60.3748 91.2274 60.4714 91.0165Z" fill="#030306"/>
<path d="M70.8847 81.4857C71.9589 81.8733 73.1458 81.3828 73.5385 80.3909C73.9312 79.3991 73.3781 78.283 72.3038 77.8953C71.2296 77.5077 70.0427 77.9983 69.65 78.9901C69.2573 79.982 69.8105 81.0981 70.8847 81.4857Z" fill="#030306"/>
</g>
</g>
<defs>
<filter id="filter0_d_5168_4415" x="7.6936" y="13" width="135.496" height="122.961" filterUnits="userSpaceOnUse" color-interpolation-filters="sRGB">
<feFlood flood-opacity="0" result="BackgroundImageFix"/>
<feColorMatrix in="SourceAlpha" type="matrix" values="0 0 0 0 0 0 0 0 0 0 0 0 0 0 0 0 0 0 127 0" result="hardAlpha"/>
<feOffset dy="4"/>
<feGaussianBlur stdDeviation="8"/>
<feComposite in2="hardAlpha" operator="out"/>
<feColorMatrix type="matrix" values="0 0 0 0 0.282353 0 0 0 0 0.282353 0 0 0 0 0.282353 0 0 0 0.16 0"/>
<feBlend mode="normal" in2="BackgroundImageFix" result="effect1_dropShadow_5168_4415"/>
<feBlend mode="normal" in="SourceGraphic" in2="effect1_dropShadow_5168_4415" result="shape"/>
</filter>
</defs>
</svg>
