<svg width="127" height="140" viewBox="0 0 127 140" fill="none" xmlns="http://www.w3.org/2000/svg">
<g filter="url(#filter0_d_5207_45429)">
<path d="M25.7812 81.38C25.8463 81.3508 25.9356 81.309 26.054 81.2422C26.2456 81.1345 26.4313 80.9996 26.5929 80.8544L26.7212 80.74L26.6925 80.7617C26.9842 80.4894 27.1426 80.2519 27.188 80.1574C27.5966 79.3267 28.1428 78.6124 28.7679 77.9988C28.0358 75.9945 27.4895 73.7866 27.1496 71.388C26.091 63.898 27.1435 55.0363 30.1058 46.4391C31.5143 42.3503 33.2858 38.508 35.3568 35.0236C36.1137 33.7458 36.9226 32.5089 37.7534 31.3442C39.4061 29.033 41.1955 26.9593 43.0789 25.1754C45.3688 23.0093 47.736 21.3433 50.1276 20.166C50.2438 19.3847 50.4703 18.6173 50.8071 17.8868C51.7191 15.9157 53.3323 14.4338 55.3487 13.7124C58.6212 12.5444 62.2293 12.6179 65.7797 13.924L66.2178 14.0937C67.3813 14.5566 68.5112 15.1453 69.5688 15.8373C71.9077 17.3644 73.8956 19.3577 75.3169 21.6166C76.4783 23.4649 76.8695 25.6585 76.4153 27.7959C76.1603 28.9945 75.6501 30.0912 74.9441 31.0297C75.6498 32.9938 76.1737 35.1556 76.5029 37.4935C76.5203 37.6207 76.5265 37.7593 76.5439 37.8865C76.6368 37.7961 76.7275 37.6988 76.8199 37.6117C78.57 35.9545 80.3657 34.5894 82.1854 33.5098C82.2349 32.3807 82.5101 31.2671 83.0184 30.2291C83.9757 28.2782 85.6189 26.8337 87.6609 26.1588C90.1335 25.3414 92.8945 25.0963 95.6239 25.4425C96.8787 25.5985 98.1154 25.8827 99.2885 26.2783L99.7472 26.4381C103.297 27.7474 106.137 30.047 107.955 33.0885C109.078 34.9634 109.419 37.1657 108.922 39.2898C108.723 40.14 108.393 40.9307 107.961 41.653C109.039 44.0747 109.818 46.8398 110.252 49.918C111.314 57.4053 110.265 66.2675 107.298 74.8706C106.849 76.1733 106.352 77.4752 105.83 78.724C105.472 79.5855 105.096 80.4313 104.709 81.2489C101.917 87.1961 98.3229 92.3404 94.3201 96.1269C92.0082 98.3125 89.6198 99.9916 87.2058 101.169C87.2051 101.653 87.1622 102.141 87.074 102.632C87.1071 102.716 87.1519 102.808 87.2209 102.934C87.2563 103.001 87.2953 103.066 87.3562 103.158C87.4517 103.3 87.5521 103.431 87.6829 103.572C87.9519 103.873 88.1854 104.037 88.2814 104.085C92.2202 106.143 93.8198 111.083 91.84 115.106C90.0376 118.756 85.8208 120.459 82.0327 119.063C81.7247 118.95 81.4225 118.818 81.0907 118.645C79.6627 117.895 78.3048 116.92 77.0748 115.766C68.9499 117.223 59.4608 116.176 50.2893 112.799C41.1576 109.435 33.1977 104.078 27.8003 97.6748C26.0075 97.9003 24.2131 97.7946 22.4692 97.3528L22.0149 97.2297L21.6822 97.1091C17.809 95.6807 15.6012 91.5302 16.5463 87.4512C17.5297 83.2144 21.6071 80.5632 25.779 81.3731L25.7812 81.38Z" fill="white"/>
<path d="M67.2874 25.4853C66.7559 24.6012 65.9951 23.7673 65.1121 23.0702C64.4953 22.5745 63.8122 22.1513 63.1033 21.8237C61.5277 21.0872 59.8096 20.8364 58.3204 21.3954C57.7394 21.6127 57.1018 21.2897 56.8963 20.6728C56.6908 20.0559 56.9943 19.3798 57.5753 19.1625C59.4307 18.4686 61.4276 18.6272 63.2774 19.3272C63.3666 19.3612 63.4584 19.3989 63.5476 19.4329C64.2733 19.7299 64.9719 20.109 65.6274 20.5511C67.0816 21.5308 68.3235 22.8224 69.1639 24.2102C69.4945 24.7605 69.3462 25.4909 68.8277 25.8443C68.3092 26.1976 67.6211 26.036 67.2874 25.4853Z" fill="#030306"/>
<path d="M100.444 36.7276C99.638 35.3139 98.183 34.371 96.5564 33.889C95.8248 33.669 95.0587 33.5419 94.3007 33.511C93.22 33.4588 92.1559 33.5958 91.2351 33.9192C90.6601 34.1201 90.0424 33.7871 89.854 33.1746C89.6655 32.562 89.9782 31.9039 90.5532 31.703C92.0034 31.1977 93.7039 31.0364 95.3834 31.2483C96.1419 31.3415 96.8953 31.5158 97.6191 31.7705C97.7101 31.8012 97.7976 31.8346 97.8852 31.8681C99.7013 32.5567 101.314 33.7602 102.318 35.5162C102.632 36.0667 102.467 36.7842 101.951 37.1187C101.433 37.4565 100.76 37.2785 100.444 36.7276Z" fill="#030306"/>
<path d="M75.0379 94.4426C70.7788 92.8774 67.894 88.3498 66.9168 81.6961C65.9804 75.3105 66.8998 67.6413 69.5046 60.1072C70.762 56.4655 72.3441 53.0582 74.1703 50.0198C74.8335 48.911 75.5327 47.847 76.2592 46.843C77.6572 44.9048 79.1629 43.1733 80.7438 41.6958C85.5828 37.1768 90.5951 35.5539 94.8543 37.1191C99.1134 38.6843 101.995 43.2115 102.972 49.8652C103.912 56.2512 102.992 63.9205 100.387 71.4578C99.9814 72.6302 99.5433 73.7779 99.0733 74.8976C98.7578 75.6525 98.4245 76.3947 98.0799 77.1254C95.6593 82.2517 92.582 86.6594 89.1453 89.8655C84.3063 94.3844 79.2971 96.0078 75.0379 94.4426ZM85.7144 57.1997C84.8898 56.8962 83.8614 57.689 83.4183 58.9667C82.9751 60.2444 83.2872 61.5301 84.1118 61.8336C84.9364 62.1371 85.9643 61.3475 86.4079 60.0666C86.851 58.7889 86.539 57.5032 85.7144 57.1997ZM95.9657 47.0453C94.3842 46.4654 92.208 48.585 91.1029 51.7829C89.9978 54.9809 90.3817 58.0443 91.9632 58.6242C93.5447 59.2042 95.7209 57.0846 96.826 53.8866C97.9311 50.6887 97.5472 47.6253 95.9657 47.0453ZM92.6726 75.7878C83.3515 72.3607 76.9583 63.8938 74.7717 53.7161C73.6041 55.9589 72.5655 58.3725 71.6882 60.9097C69.2025 68.0996 68.3217 75.3726 69.2048 81.3932C70.0476 87.1425 72.3892 90.9989 75.7957 92.2529C79.2025 93.5037 83.3804 92.0467 87.5633 88.1406C90.6577 85.2501 93.4571 81.3022 95.7051 76.695C94.6862 76.4589 93.6729 76.1583 92.6722 75.791L92.6726 75.7878Z" fill="#030306"/>
<path d="M65.0799 64.8578C62.6593 69.9841 59.582 74.3918 56.1453 77.5979C51.3063 82.1168 46.2971 83.7402 42.038 82.1751C37.7788 80.6099 34.894 76.0822 33.9168 69.4285C32.9804 63.043 33.8998 55.3737 36.5046 47.8396C37.762 44.1979 39.3441 40.7906 41.1703 37.7523C41.8335 36.6434 42.5327 35.5795 43.2592 34.5755C44.6572 32.6373 46.1629 30.9058 47.7438 29.4282C52.5828 24.9093 57.5951 23.2864 61.8543 24.8516C66.1134 26.4167 68.9951 30.9439 69.9723 37.5976C70.9119 43.9837 69.9924 51.6529 67.3872 59.1902C66.9814 60.3626 66.5433 61.5103 66.0733 62.63C65.7578 63.3849 65.4245 64.1271 65.0799 64.8578ZM52.7139 44.9353C51.8893 44.6318 50.8614 45.4214 50.4178 46.7023C49.9747 47.98 50.2867 49.2657 51.1113 49.5692C51.9359 49.8727 52.9639 49.0831 53.4074 47.8022C53.8506 46.5245 53.5385 45.2388 52.7139 44.9353ZM62.9625 34.7773C61.381 34.1973 59.2048 36.3169 58.0997 39.5149C56.9946 42.7128 57.3785 45.7762 58.96 46.3562C60.5416 46.9361 62.7177 44.8165 63.8228 41.6186C64.9279 38.4206 64.544 35.3572 62.9625 34.7773ZM59.6695 63.5198C50.3483 60.0926 43.9551 51.6257 41.7685 41.448C40.601 43.6908 39.5623 46.1044 38.6851 48.6416C36.1994 55.8315 35.3185 63.1045 36.2017 69.1251C37.0444 74.8744 39.3861 78.7309 42.7925 79.9848C46.1994 81.2356 50.3773 79.7787 54.5597 75.8757C57.654 72.9852 60.4535 69.0373 62.7015 64.4301C61.6826 64.194 60.6693 63.8935 59.6686 63.5262L59.6695 63.5198Z" fill="#030306"/>
<path d="M23.918 88.7564C25.4313 89.1381 27.0758 88.7831 28.5513 88.0052C28.6135 87.9734 28.6761 87.9385 28.7388 87.9036C29.3436 87.5705 29.9198 87.1657 30.4421 86.7109C30.5149 86.6489 30.5846 86.5863 30.6543 86.5238C31.4783 85.7681 32.1611 84.8975 32.6096 84.0029C32.8893 83.4461 33.5717 83.2242 34.1407 83.5181C34.7042 83.8049 34.9354 84.4964 34.6589 85.0537C33.9756 86.4131 32.8979 87.7234 31.5891 88.7799C32.2013 89.755 32.9189 90.7339 33.7366 91.7093C38.1275 96.9471 44.8675 101.404 52.7091 104.263C60.5542 107.12 68.5326 108.026 75.1759 106.808C76.1208 106.637 77.0172 106.423 77.8703 106.173C77.2774 104.597 77.0724 102.91 77.4577 101.27C77.6004 100.66 78.2167 100.29 78.8276 100.444C79.4417 100.598 79.8206 101.22 79.6775 101.833C79.4081 102.986 79.5695 104.226 80.0302 105.414C80.1925 105.839 80.3943 106.257 80.6261 106.667C80.7752 106.934 80.9409 107.196 81.1174 107.451C81.398 107.856 81.7096 108.247 82.0479 108.607C82.8174 109.444 83.7024 110.142 84.6102 110.608C85.1764 110.898 85.4085 111.583 85.128 112.146C84.8484 112.703 84.1632 112.921 83.5966 112.634C82.171 111.899 80.7939 110.746 79.6911 109.352C79.4125 109.001 79.1522 108.634 78.9129 108.255C77.8798 108.575 76.7832 108.843 75.6273 109.055C68.5888 110.345 60.182 109.404 51.9583 106.408C43.7345 103.412 36.6442 98.7049 31.9913 93.1574C31.121 92.1226 30.3546 91.0786 29.6977 90.0325C29.6145 90.077 29.5286 90.1178 29.4458 90.1591C29.359 90.2062 29.2731 90.247 29.184 90.2873C27.3756 91.1279 25.3579 91.4659 23.3949 90.9719C22.7812 90.8148 22.4019 90.1959 22.5414 89.585C22.684 88.9747 23.2999 88.6081 23.9172 88.7627L23.918 88.7564Z" fill="#030306"/>
<path d="M55.6137 97.1304C54.0453 96.5505 53.2138 94.796 53.7607 93.2115C54.3076 91.6269 56.0221 90.8089 57.5904 91.3889C59.1588 91.9688 59.9903 93.7232 59.4434 95.3078C58.8965 96.8924 57.182 97.7104 55.6137 97.1304Z" fill="#030306"/>
</g>
<defs>
<filter id="filter0_d_5207_45429" x="0.328613" y="0.887207" width="126.327" height="138.662" filterUnits="userSpaceOnUse" color-interpolation-filters="sRGB">
<feFlood flood-opacity="0" result="BackgroundImageFix"/>
<feColorMatrix in="SourceAlpha" type="matrix" values="0 0 0 0 0 0 0 0 0 0 0 0 0 0 0 0 0 0 127 0" result="hardAlpha"/>
<feOffset dy="4"/>
<feGaussianBlur stdDeviation="8"/>
<feComposite in2="hardAlpha" operator="out"/>
<feColorMatrix type="matrix" values="0 0 0 0 0.282353 0 0 0 0 0.282353 0 0 0 0 0.282353 0 0 0 0.16 0"/>
<feBlend mode="normal" in2="BackgroundImageFix" result="effect1_dropShadow_5207_45429"/>
<feBlend mode="normal" in="SourceGraphic" in2="effect1_dropShadow_5207_45429" result="shape"/>
</filter>
</defs>
</svg>
