<svg width="199" height="204" viewBox="0 0 199 204" fill="none" xmlns="http://www.w3.org/2000/svg">
<g filter="url(#filter0_d_5181_36388)">
<path d="M105.224 25.3844C93.2498 22.8127 80.3967 23.8043 68.2805 29.0114C56.1643 34.2185 46.5588 42.8775 40.1164 53.3659L20 62.0091L30.874 87.6946L48.6641 129.707L69.5964 179.137L179.6 131.865L130.004 14.7369L105.224 25.3844Z" fill="white"/>
<path d="M124.481 23.5902L30.8 63.937L75.6284 170.057L169.309 129.71L124.481 23.5902Z" fill="#20407B"/>
<mask id="mask0_5181_36388" style="mask-type:luminance" maskUnits="userSpaceOnUse" x="24" y="11" width="145" height="159">
<path d="M119.533 11L24.8 51.937L74.1573 169.17L168.891 128.234L119.533 11Z" fill="white"/>
</mask>
<g mask="url(#mask0_5181_36388)">
<path d="M136.773 135.463C160.038 111.866 160.038 73.6078 136.773 50.0107C113.509 26.4137 75.789 26.4137 52.5244 50.0107C29.2597 73.6077 29.2597 111.866 52.5244 135.463C75.789 159.06 113.509 159.06 136.773 135.463Z" fill="#BAE1FF"/>
<path d="M98.3425 153.803C89.4709 154.406 80.5051 152.97 72.0103 149.49C57.1457 143.393 45.4948 131.76 39.2088 116.726C26.2337 85.6931 40.4231 49.6787 70.8483 36.4443C101.274 23.2045 136.582 37.6829 149.557 68.7163C155.843 83.7498 156.016 100.38 150.039 115.541C144.061 130.703 132.657 142.587 117.918 148.998C111.6 151.748 104.995 153.349 98.3425 153.803ZM90.4287 33.1503C84.0432 33.5881 77.6316 35.1043 71.4188 37.8057C41.7316 50.7251 27.8824 85.8693 40.5435 116.15C46.6777 130.82 58.0459 142.176 72.5546 148.123C87.0632 154.07 102.969 153.899 117.352 147.642C131.735 141.386 142.868 129.79 148.699 114.991C154.529 100.193 154.362 83.9687 148.228 69.2982C138.21 45.3491 114.563 31.506 90.4287 33.1503Z" fill="#030306"/>
<path d="M142.863 72.5033C142.193 72.1338 141.363 72.4015 141.01 73.0923C140.236 74.6024 138.851 75.7377 137.226 76.4821C136.401 76.8623 135.513 77.1407 134.605 77.3174C132.913 77.6494 131.169 77.6226 129.69 77.221C128.958 77.0229 128.206 77.4727 128.013 78.2331C127.821 78.9882 128.263 79.7647 128.994 79.9628C130.92 80.4823 133.162 80.5304 135.326 80.0806C140.101 101.024 129.737 123.161 109.921 131.885C90.1979 140.565 67.6622 133.079 56.2646 115.22C56.3736 115.177 56.4826 115.129 56.5916 115.081C58.813 114.101 60.7438 112.521 61.8752 110.309C62.2282 109.619 61.9738 108.762 61.3043 108.398C60.6348 108.034 59.8043 108.296 59.4462 108.992C58.5379 110.77 56.7889 112.023 54.7855 112.735C53.8876 113.062 52.9378 113.276 51.9879 113.373C50.6385 113.517 49.2995 113.437 48.1213 113.121C47.3895 112.923 46.6369 113.373 46.4449 114.133C46.2528 114.888 46.694 115.664 47.4258 115.863C49.2787 116.361 51.417 116.425 53.4983 116.034C65.4513 135.558 89.7568 143.837 110.995 134.493C132.109 125.202 143.132 101.576 137.958 79.272C138.025 79.2452 138.088 79.2184 138.155 79.1917C140.376 78.2117 142.307 76.632 143.439 74.4204C143.797 73.7296 143.537 72.8728 142.868 72.5087L142.863 72.5033Z" fill="#030306"/>
<path d="M57.378 64.3511C58.2846 62.4956 60.0304 61.1821 62.0301 60.4444C62.9263 60.1034 63.8743 59.8799 64.8224 59.7793C66.1693 59.6284 67.5059 59.7122 68.6819 60.042C69.4123 60.2488 70.1635 59.7793 70.3552 58.9856C70.5469 58.1976 70.1065 57.3872 69.3761 57.1804C67.5266 56.6606 65.3923 56.5935 63.3149 57.0015C62.372 57.186 61.4447 57.4654 60.5588 57.8454C60.45 57.8902 60.3412 57.9405 60.2324 57.9908C58.0152 59.0136 56.088 60.6624 54.9587 62.9706C54.6064 63.6916 54.8602 64.5859 55.5285 64.966C56.1968 65.346 57.0257 65.0721 57.3832 64.3455L57.378 64.3511Z" fill="#030306"/>
<path d="M87.3779 51.149C88.2845 49.294 90.0304 47.9809 92.03 47.2433C92.9263 46.9025 93.8743 46.679 94.8223 46.5785C96.1693 46.4276 97.5059 46.5114 98.6819 46.841C99.4123 47.0478 100.163 46.5784 100.355 45.785C100.547 44.9972 100.107 44.187 99.3761 43.9803C97.5266 43.4607 95.3922 43.3936 93.3148 43.8015C92.3719 43.9859 91.4447 44.2653 90.5588 44.6452C90.45 44.6899 90.3412 44.7402 90.2324 44.7905C88.0151 45.813 86.088 47.4612 84.9587 49.7689C84.6064 50.4896 84.8602 51.3837 85.5285 51.7636C86.1968 52.1491 87.0257 51.8698 87.3831 51.1434L87.3779 51.149Z" fill="#030306"/>
<path d="M85.1345 112.403C88.1777 111.106 90.3222 108.24 91.3471 104.108C92.7872 98.28 91.8201 90.7251 88.6876 83.3854C86.007 77.1062 82.1019 71.8351 77.6921 68.538C73.3139 65.2619 68.9041 64.3116 65.2617 65.8657C61.5142 67.4617 59.1279 71.457 58.5393 77.1219C57.9821 82.4876 59.1069 88.7983 61.7086 94.8832C64.3103 100.968 68.0894 106.15 72.352 109.463C76.8511 112.959 81.387 114.004 85.1345 112.408V112.403Z" fill="#030306"/>
<path d="M66.0294 68.0448C68.5055 66.9916 71.6019 67.5904 74.8428 69.7128C71.5805 74.1072 71.6287 82.3241 75.1316 90.5357C78.2335 97.801 83.4104 103.302 88.4 104.815C87.7155 106.9 86.432 109.209 84.0361 110.231C78.0089 112.802 68.7943 105.312 63.9115 93.877C59.0342 82.4418 60.0021 70.6109 66.0347 68.0395L66.0294 68.0448Z" fill="white"/>
<path d="M115.135 99.2029C118.178 97.9061 120.322 95.0396 121.347 90.9077C122.787 85.0801 121.82 77.5251 118.688 70.1854C116.007 63.9063 112.102 58.6351 107.692 55.338C103.314 52.0619 98.9041 51.1116 95.2617 52.6656C91.5142 54.2617 89.1279 58.2571 88.5393 63.922C87.9821 69.2876 89.1069 75.5983 91.7086 81.6832C94.3103 87.7681 98.0894 92.95 102.352 96.2629C106.851 99.7595 111.387 100.804 115.135 99.2082V99.2029Z" fill="#030306"/>
<path d="M96.0293 54.8448C98.5054 53.7916 101.602 54.3904 104.843 56.5128C101.581 60.9072 101.629 69.1241 105.132 77.3356C108.233 84.6009 113.41 90.102 118.4 91.6149C117.716 93.6999 116.432 96.0094 114.036 97.0305C108.009 99.602 98.7943 92.1121 93.9115 80.6769C89.0342 69.2417 90.0021 57.4109 96.0347 54.8394L96.0293 54.8448Z" fill="white"/>
<path d="M75.6699 61.4411C76.2807 61.1827 76.5626 60.4779 76.3042 59.8671C76.0458 59.2563 75.341 58.9743 74.7301 59.2328C74.1193 59.4912 73.8374 60.196 74.0958 60.8068C74.3542 61.4177 75.059 61.6996 75.6699 61.4411Z" fill="#030306"/>
<path d="M103.27 48.2411C103.881 47.9827 104.163 47.2779 103.904 46.6671C103.646 46.0563 102.941 45.7743 102.33 46.0328C101.719 46.2912 101.437 46.996 101.696 47.6068C101.954 48.2177 102.659 48.4996 103.27 48.2411Z" fill="#030306"/>
<path d="M99.3054 108.191C100.219 107.804 100.647 106.746 100.254 105.832C99.8667 104.918 98.8087 104.49 97.8947 104.883C96.9807 105.275 96.5535 106.328 96.9459 107.242C97.3383 108.156 98.3914 108.584 99.3054 108.191Z" fill="#030306"/>
</g>
</g>
<defs>
<filter id="filter0_d_5181_36388" x="0.799999" y="0.336938" width="198" height="202.8" filterUnits="userSpaceOnUse" color-interpolation-filters="sRGB">
<feFlood flood-opacity="0" result="BackgroundImageFix"/>
<feColorMatrix in="SourceAlpha" type="matrix" values="0 0 0 0 0 0 0 0 0 0 0 0 0 0 0 0 0 0 127 0" result="hardAlpha"/>
<feOffset dy="4.8"/>
<feGaussianBlur stdDeviation="9.6"/>
<feComposite in2="hardAlpha" operator="out"/>
<feColorMatrix type="matrix" values="0 0 0 0 0.282353 0 0 0 0 0.282353 0 0 0 0 0.282353 0 0 0 0.16 0"/>
<feBlend mode="normal" in2="BackgroundImageFix" result="effect1_dropShadow_5181_36388"/>
<feBlend mode="normal" in="SourceGraphic" in2="effect1_dropShadow_5181_36388" result="shape"/>
</filter>
</defs>
</svg>
