<svg width="93" height="20" viewBox="0 0 93 20" fill="none" xmlns="http://www.w3.org/2000/svg">
<path d="M56.6697 0C48.936 0 42.6684 4.47159 42.6684 9.99389C42.6684 15.5162 48.936 19.9878 56.6697 19.9878C64.4033 19.9878 70.6709 15.5162 70.6709 9.99389C70.6709 4.47159 64.4033 0 56.6697 0ZM56.6697 15.3329C51.3306 15.3329 47.3355 12.5229 47.3355 10.0061C47.3355 7.48931 51.3306 4.67929 56.6697 4.67929C62.0087 4.67929 66.0038 7.48931 66.0038 10.0061C66.0038 12.5229 62.0209 15.3329 56.6697 15.3329Z" fill="#98A2B3"/>
<path d="M10.7441 0C5.22185 0 0.750255 4.47159 0.738037 9.99389C0.738037 15.5162 5.20964 19.9878 10.7319 20C16.2542 20 20.7258 15.5284 20.738 10.0061C20.738 4.4716 16.2664 0 10.7441 0ZM16.071 9.99389C16.071 12.9383 13.6886 15.3207 10.7441 15.3329C7.79974 15.3329 5.40512 12.9505 5.40512 10.0061C5.40512 7.0617 7.78752 4.66708 10.7319 4.66708C13.6763 4.66708 16.071 7.04948 16.071 9.99389Z" fill="#98A2B3"/>
<path d="M39.0154 14.8809H31.0862L41.2023 1.52717C41.5322 1.08734 41.2267 0.452032 40.6647 0.452032H26.1259C24.6843 0.452032 23.4503 1.77152 23.7557 3.26205C23.9757 4.36162 25.0019 5.10688 26.1259 5.10688H32.6378L22.5096 18.4728C22.1797 18.9126 22.4851 19.5357 23.0349 19.5357H38.9298C40.0538 19.5357 41.0801 18.7905 41.3 17.6909C41.6055 16.1881 40.457 14.8809 39.0154 14.8809Z" fill="#98A2B3"/>
<path d="M92.3813 2.78551V18.8759C92.3813 19.0225 92.3324 19.1691 92.2347 19.2913C92.0026 19.5845 91.575 19.6334 91.2817 19.4013L78.6733 9.39517V17.2143C78.6733 18.5338 77.586 19.5845 76.2665 19.5479C74.9959 19.5112 74.0062 18.4239 74.0062 17.1533V1.12394C74.0062 0.965112 74.0551 0.818503 74.1528 0.696328C74.385 0.415326 74.8126 0.366454 75.0936 0.598586L87.702 10.6047V2.8466C87.702 1.57598 88.6916 0.500848 89.95 0.451979C91.2817 0.403109 92.3813 1.46603 92.3813 2.78551Z" fill="#98A2B3"/>
</svg>
