<svg width="99" height="101" viewBox="0 0 99 101" fill="none" xmlns="http://www.w3.org/2000/svg">
<g filter="url(#filter0_d_5168_3941)">
<path d="M42.4964 79.3887C26.4326 75.5392 16.4203 59.2839 20.174 43.1512C23.9277 27.0185 40.0489 17.0281 56.1127 20.8777C72.1765 24.7273 82.1889 40.9826 78.4352 57.1153C74.6815 73.2479 58.5594 83.2402 42.4964 79.3887Z" fill="white"/>
<path d="M58.7764 74.6099C72.4841 69.4818 79.4393 54.2124 74.3113 40.5046C69.1832 26.7969 53.9138 19.8417 40.2061 24.9697C26.4983 30.0978 19.5431 45.3672 24.6711 59.0749C29.7992 72.7827 45.0686 79.7379 58.7764 74.6099Z" fill="#CFEA4A"/>
<path d="M49.9082 31.814L50.9764 31.8766C51.3069 31.896 51.5616 31.8544 51.7394 31.7491C51.888 31.6587 52.031 31.6156 52.1704 31.6252L52.5997 31.6498C52.8204 31.6636 52.9203 31.7759 52.9023 31.9903C52.8976 32.0355 52.8778 32.1093 52.839 32.2051L52.2171 33.7832C52.1053 34.061 51.9419 34.1943 51.7295 34.1819C51.6557 34.1763 51.5229 34.1319 51.3313 34.0437C51.1396 33.9555 50.8241 33.898 50.3837 33.8731L47.8181 33.7234C47.422 33.6999 47.2379 33.5252 47.2657 33.1945C47.2763 33.0715 47.3474 32.9289 47.4807 32.7628C47.6131 32.5987 47.6973 32.4669 47.735 32.3682C47.7719 32.2715 47.8042 32.0803 47.8284 31.7976L48.1523 27.991C48.1909 27.5468 48.1315 27.1903 47.9769 26.9202C47.8872 26.7605 47.8478 26.6287 47.8559 26.5211C47.8839 26.2 48.0839 26.0504 48.4587 26.0712L50.2424 26.1763C50.6099 26.1985 50.78 26.3692 50.752 26.6903C50.7415 26.8133 50.6821 26.94 50.5758 27.0711C50.3777 27.321 50.2598 27.6671 50.2212 28.1112L49.9055 31.8151L49.9082 31.814Z" fill="white"/>
<path d="M57.357 30.0482L56.3186 33.3125C56.2429 33.5477 56.2072 33.7169 56.2109 33.8156C56.2139 33.9161 56.2588 34.0697 56.3501 34.2783C56.4243 34.4516 56.444 34.5935 56.4086 34.7059C56.3195 34.9877 56.0604 35.0499 55.6332 34.8935L53.7706 34.2099C53.3518 34.0574 53.1867 33.8381 53.2757 33.5563C53.3101 33.4519 53.4103 33.3482 53.5832 33.2463C53.754 33.1435 53.8691 33.0572 53.928 32.983C53.9868 32.9088 54.0528 32.7514 54.1315 32.5093L55.17 29.245C55.249 28.9966 55.2897 28.8107 55.2884 28.6899C55.287 28.569 55.2518 28.422 55.1818 28.2507C55.1098 28.0783 55.0919 27.9435 55.1239 27.8443C55.2127 27.5688 55.4526 27.5041 55.8495 27.6486L57.734 28.3402C58.1302 28.4865 58.2842 28.6965 58.1963 28.9704C58.1674 29.0625 58.0778 29.1542 57.9274 29.2454C57.6702 29.3992 57.481 29.6665 57.3599 30.0475L57.357 30.0482Z" fill="white"/>
<path d="M61.2432 34.0074L63.5801 32.6396C63.7557 32.5351 63.8713 32.4498 63.9238 32.3801C63.9981 32.2826 64.0322 32.1397 64.024 31.9506C64.0131 31.7157 64.0423 31.5527 64.1141 31.4607C64.3006 31.2182 64.5756 31.2353 64.9429 31.5092L66.5154 32.6858C66.8876 32.9641 66.9825 33.2199 66.8005 33.4577C66.7164 33.5664 66.4992 33.6541 66.1518 33.7198C65.9024 33.7703 65.5625 33.9176 65.1297 34.1674L60.6672 36.7612C60.4569 36.8856 60.3089 36.9493 60.2234 36.9523C60.1379 36.9554 60.0248 36.9056 59.885 36.8011L58.8787 36.048C58.7192 35.93 58.6303 35.8266 58.6111 35.7396C58.592 35.6526 58.6161 35.4851 58.6825 35.2343L60.0992 29.9689C60.1667 29.7209 60.1881 29.4092 60.1656 29.0393C60.1519 28.8209 60.1805 28.6644 60.2524 28.5724C60.4388 28.3299 60.7001 28.3362 61.0338 28.5858L62.7078 29.838C63.0485 30.093 63.1357 30.3296 62.9667 30.5488C62.8871 30.6529 62.6862 30.7458 62.3606 30.8305C62.2623 30.8567 62.1808 30.913 62.1134 31.0004C62.0468 31.0858 61.9904 31.2162 61.9421 31.3905L61.2385 34.0075L61.2432 34.0074Z" fill="white"/>
<path d="M67.6358 37.8657L66.853 38.3553L67.092 38.7622C67.1736 38.9002 67.3567 39.0484 67.6441 39.2057C67.6818 39.2253 67.7182 39.2672 67.7561 39.3303C67.849 39.4873 67.8192 39.6563 67.6694 39.8364L66.8342 40.8249C66.7895 40.8798 66.7418 40.9218 66.6929 40.9518C66.4874 41.0788 66.3159 41.0274 66.1802 40.7937C66.1385 40.7242 66.1174 40.614 66.1133 40.4614C66.1091 40.2059 66.0316 39.951 65.8836 39.7002L65.5677 39.1597L64.672 39.7184L65.4252 41.006C65.5761 41.2649 65.7821 41.4556 66.0414 41.5772C66.1367 41.621 66.2233 41.7134 66.3048 41.8514L66.432 42.0698C66.5867 42.3351 66.5808 42.5197 66.4118 42.6247C66.3255 42.6786 66.2218 42.7223 66.1041 42.7527L64.8126 43.0951C64.4471 43.1942 64.2052 43.1469 64.0922 42.951C64.0543 42.8879 64.0193 42.7302 63.9808 42.4772C63.9631 42.3594 63.8775 42.1716 63.7266 41.9126L62.0874 39.112C61.8872 38.771 61.922 38.5174 62.1897 38.3505C62.2884 38.2886 62.4388 38.2641 62.6364 38.2773C62.8358 38.2914 62.9822 38.2856 63.0782 38.259C63.1735 38.2343 63.3358 38.1491 63.5662 38.0061L66.6625 36.0704C67.0227 35.8455 67.2645 35.589 67.3871 35.3073C67.4595 35.1419 67.5371 35.0337 67.618 34.9818C67.8858 34.8149 68.114 34.8925 68.3009 35.2137L69.7078 37.6173C69.8814 37.9142 70.1198 38.1997 70.4257 38.4729C70.4823 38.5241 70.5235 38.575 70.5538 38.6255C70.6581 38.8013 70.6147 39.0006 70.4297 39.2194L69.4783 40.3578C69.4029 40.4464 69.3297 40.5155 69.2532 40.5626C69.1233 40.6445 68.9905 40.6153 68.8573 40.4741C68.8207 40.4276 68.7365 40.2907 68.6046 40.0632C68.5458 39.9631 68.5236 39.8455 68.538 39.7105C68.5524 39.5756 68.5489 39.4803 68.5274 39.4202C68.5059 39.36 68.4259 39.2136 68.2894 38.9817L67.6358 37.8657Z" fill="white"/>
<path d="M70.1154 48.2624L66.6586 48.7022C66.4093 48.7334 66.2373 48.77 66.1453 48.811C66.0533 48.852 65.9266 48.9511 65.7671 49.1045C65.6336 49.2329 65.5086 49.305 65.3904 49.3201C65.0916 49.3586 64.933 49.1745 64.9121 48.7691L64.8219 46.9987C64.8019 46.6007 64.9404 46.382 65.2393 46.3436C65.3505 46.3299 65.487 46.3719 65.6489 46.4695C65.8107 46.5671 65.9378 46.6255 66.0299 46.6448C66.1203 46.6632 66.2959 46.656 66.5521 46.6234L70.0089 46.1836C70.2721 46.1496 70.4606 46.109 70.5744 46.0618C70.6864 46.0137 70.8095 45.9269 70.9431 45.8032C71.0766 45.6794 71.1947 45.6088 71.2989 45.5965C71.5908 45.5595 71.7459 45.728 71.765 46.1048L71.8552 47.8984C71.8743 48.2752 71.7375 48.4808 71.4473 48.5186C71.3491 48.5313 71.2291 48.4946 71.0855 48.4077C70.841 48.2605 70.5159 48.2128 70.1145 48.2643L70.1154 48.2624Z" fill="white"/>
<path d="M69.1451 53.6812L66.9296 53.121C66.6697 53.0546 66.4948 53.0252 66.4013 53.0309C66.3079 53.0367 66.1652 53.0797 65.9705 53.1564C65.8066 53.2273 65.6676 53.2476 65.551 53.2184C65.2582 53.1435 65.1586 52.9182 65.2532 52.5405L65.6765 50.8732C65.7729 50.4963 65.967 50.344 66.2599 50.4189C66.3685 50.4467 66.486 50.5362 66.6125 50.6875C66.7372 50.8379 66.8409 50.9388 66.9237 50.9902C67.0047 51.0408 67.1734 51.0984 67.4262 51.1615L70.83 52.0223C71.0899 52.0886 71.2799 52.1184 71.3999 52.1159C71.52 52.1135 71.6611 52.0787 71.8252 52.0123C71.9875 51.9451 72.1194 51.926 72.2226 51.9513C72.5101 52.0237 72.6076 52.2392 72.5185 52.595L72.175 53.9466C72.111 54.1987 72.0573 54.3513 72.0148 54.4071C71.9724 54.463 71.8564 54.5426 71.6704 54.6433L69.3378 55.8823L69.8193 56.0041C70.0792 56.0705 70.2692 56.1002 70.3892 56.0978C70.5093 56.0954 70.6513 56.0587 70.8145 55.9941C70.9768 55.9269 71.1087 55.9078 71.2119 55.9331C71.4994 56.0055 71.5969 56.221 71.5078 56.5768L71.0799 58.2642C70.9915 58.6137 70.804 58.7513 70.5165 58.6789C70.4132 58.6536 70.3093 58.577 70.2023 58.4546C70.0126 58.2277 69.7188 58.0637 69.3227 57.9636L65.9189 57.1028C65.6662 57.0397 65.4913 57.0103 65.396 57.0152C65.3008 57.0202 65.1615 57.0603 64.9791 57.1338C64.7967 57.2073 64.6507 57.2288 64.5421 57.201C64.2493 57.1262 64.1497 56.9008 64.2443 56.5232L64.6699 54.8458C64.7663 54.469 64.9641 54.3183 65.2649 54.3946C65.3682 54.42 65.4803 54.507 65.6031 54.6521C65.725 54.7991 65.8188 54.8932 65.8801 54.9348C65.9414 54.9763 66.0711 55.0293 66.2647 55.0939L66.3844 55.1357L69.1433 53.6804L69.1451 53.6812Z" fill="white"/>
<path d="M63.2092 65.1038L60.7568 62.558C60.5706 62.3642 60.4345 62.2453 60.3502 62.1975C60.2632 62.1507 60.1232 62.1088 59.9286 62.0757C59.733 62.0398 59.5961 61.9813 59.5142 61.8986C59.2974 61.6749 59.3292 61.4235 59.6086 61.1463L60.8319 59.9261C61.1096 59.6481 61.3581 59.6204 61.5741 59.846C61.6533 59.9297 61.709 60.0703 61.7404 60.2696C61.7719 60.4689 61.808 60.614 61.8521 60.7019C61.8963 60.7898 62.0115 60.9307 62.1976 61.1245L64.6519 63.6712L64.7366 63.5861C64.9374 63.3855 65.0567 63.1992 65.0918 63.0237C65.1278 62.8509 65.192 62.7182 65.2846 62.6255L65.5247 62.3866C65.6697 62.2414 65.8045 62.2358 65.9293 62.3653C65.9786 62.4173 66.0325 62.4985 66.0872 62.607L66.7625 63.986C66.882 64.2348 66.8762 64.4237 66.747 64.5537C66.6954 64.6043 66.5522 64.6872 66.3162 64.7995C66.1583 64.8757 65.9911 65.0017 65.8147 65.1775L64.6997 66.2897C64.4937 66.497 64.3168 66.7425 64.1701 67.0334C64.1286 67.1157 64.0811 67.1818 64.0306 67.2352C63.8813 67.3852 63.6798 67.3917 63.4279 67.2555L62.1017 66.5419C62.0301 66.4999 61.962 66.4505 61.8971 66.3937C61.7662 66.2681 61.7781 66.1293 61.9344 65.9735L62.1981 65.7117C62.2654 65.6457 62.4112 65.5865 62.6356 65.5342C62.7688 65.5031 62.9607 65.3614 63.2148 65.1109L63.2092 65.1038Z" fill="white"/>
<path d="M57.5433 66.978L57.0241 65.7717C56.9094 65.5062 56.8237 65.3359 56.7615 65.2629C56.702 65.1888 56.5718 65.0915 56.3708 64.971C56.2035 64.8684 56.0986 64.7664 56.0532 64.6613C55.9208 64.3527 56.0453 64.1179 56.4265 63.952L58.0695 63.2378C58.4443 63.076 58.6973 63.148 58.8297 63.4566C58.8752 63.5617 58.8753 63.716 58.8329 63.9231C58.7895 64.1275 58.7745 64.2842 58.7869 64.3904C58.7994 64.4967 58.8599 64.6764 58.9675 64.9269L60.4632 68.4099C60.6379 68.8151 60.8593 69.1015 61.1262 69.2664C61.2838 69.3646 61.3838 69.462 61.4253 69.5605C61.5505 69.8542 61.4379 70.0781 61.0836 70.2306L59.4089 70.9583C59.0621 71.1096 58.8251 71.038 58.6999 70.7444C58.6523 70.6337 58.6453 70.4949 58.6826 70.3298C58.7457 70.02 58.6918 69.6609 58.517 69.2557L58.3278 68.8158L56.5183 69.6006L56.7075 70.0406C56.8822 70.4458 57.1036 70.7322 57.3705 70.8971C57.5282 70.9953 57.6281 71.0927 57.6696 71.1912C57.7948 71.4849 57.6822 71.7088 57.3279 71.8613L55.6644 72.5848C55.3176 72.7361 55.0806 72.6645 54.9554 72.3709C54.9078 72.2602 54.9017 72.1195 54.9381 71.9563C55.0012 71.6465 54.9473 71.2875 54.7725 70.8822L53.2769 67.3992C53.1693 67.1488 53.0808 66.9795 53.0126 66.8991C52.9453 66.8167 52.8217 66.7201 52.6429 66.6122C52.465 66.5023 52.3524 66.3968 52.3069 66.2917C52.1745 65.9831 52.2962 65.7493 52.6691 65.5866L54.3121 64.8724C54.6868 64.7106 54.9399 64.7826 55.0723 65.0912C55.1178 65.1963 55.1179 65.3505 55.0755 65.5577C55.032 65.7621 55.0171 65.9188 55.0295 66.025C55.042 66.1312 55.1025 66.311 55.212 66.5623L55.7312 67.7686L57.5407 66.9838L57.5433 66.978Z" fill="white"/>
<path d="M50.4848 70.8095L50.4633 69.8545L49.978 69.8664C49.8128 69.8696 49.586 69.9631 49.2966 70.1443C49.26 70.1693 49.204 70.1808 49.129 70.1835C48.9422 70.1884 48.8076 70.0776 48.727 69.852L48.2907 68.5991C48.2657 68.5318 48.2531 68.4678 48.2527 68.4071C48.2475 68.1579 48.3818 68.0288 48.6596 68.0216C48.7413 68.0196 48.8525 68.0545 48.9885 68.1263C49.2166 68.2499 49.4808 68.3086 49.7821 68.3005L50.4233 68.2858L50.3968 67.1935L48.8648 67.2291C48.5569 67.2365 48.2811 67.3261 48.0375 67.498C47.9495 67.56 47.8211 67.594 47.6578 67.598L47.3987 67.6046C47.0842 67.6112 46.9229 67.5137 46.9183 67.3091C46.9153 67.203 46.9319 67.0896 46.9669 66.966L47.3401 65.6269C47.4428 65.2458 47.6114 65.051 47.8442 65.0464C47.9193 65.0437 48.0779 65.091 48.3199 65.1837C48.4342 65.227 48.6453 65.2449 48.9532 65.2376L52.2875 65.1604C52.693 65.1514 52.8988 65.309 52.9069 65.6339C52.9103 65.7542 52.8527 65.9023 52.7378 66.0753C52.6229 66.2482 52.5499 66.3845 52.5215 66.4832C52.4931 66.5819 52.4832 66.7728 52.4905 67.0532L52.5806 70.8284C52.59 71.268 52.6899 71.6143 52.8757 71.8674C52.9836 72.0171 53.0407 72.1411 53.0424 72.2397C53.0504 72.5646 52.862 72.7317 52.4791 72.7417L49.6179 72.8084C49.2659 72.8164 48.8871 72.8889 48.4853 73.0276C48.412 73.0521 48.3439 73.065 48.2829 73.0672C48.0726 73.0729 47.9201 72.9353 47.8217 72.6572L47.3141 71.2249C47.2752 71.1116 47.2518 71.01 47.2513 70.919C47.2474 70.7589 47.3423 70.6559 47.5359 70.6053C47.5956 70.5956 47.7607 70.5877 48.0311 70.5817C48.1522 70.5792 48.2663 70.6177 48.3773 70.6991C48.4883 70.7804 48.5764 70.8255 48.6387 70.8356C48.703 70.8465 48.8731 70.848 49.1509 70.8408L50.4801 70.8097L50.4848 70.8095Z" fill="white"/>
<path d="M37.2559 65.4379L38.5679 65.0968C38.7626 65.0442 38.8867 65.0204 38.9389 65.0225C38.9902 65.0265 39.0638 65.0581 39.1587 65.1193C39.3185 65.2212 39.4134 65.2977 39.4466 65.3523C39.4798 65.4069 39.5144 65.53 39.5505 65.7215L39.7837 67.0444L41.0492 65.0946C41.1925 64.8741 41.2775 64.7164 41.3014 64.6225C41.3272 64.5294 41.3311 64.3825 41.3168 64.1835C41.3025 63.9845 41.3249 63.8374 41.3868 63.7412C41.5531 63.4854 41.8094 63.4655 42.1521 63.6844L43.6789 64.6556C44.0217 64.8745 44.1118 65.1105 43.9447 65.3682C43.8828 65.4644 43.7578 65.5468 43.5696 65.6155C43.3807 65.686 43.2479 65.7496 43.1737 65.8116C43.0976 65.8728 42.9882 66.0128 42.8449 66.2332L40.9179 69.2038C40.7713 69.4315 40.6806 69.6019 40.6442 69.7185C40.6078 69.8351 40.5993 69.9821 40.6141 70.1594C40.6288 70.3368 40.6075 70.4713 40.5489 70.5602C40.387 70.8115 40.1438 70.833 39.8185 70.6266L38.588 69.8441C38.4031 69.7262 38.2846 69.6302 38.2315 69.5533C38.1783 69.4763 38.1357 69.3452 38.1053 69.1563L37.7976 67.3684L35.9945 67.84C35.82 67.8887 35.6765 67.8992 35.568 67.8733C35.483 67.8517 35.3583 67.79 35.1908 67.6846L33.9401 66.8906C33.6225 66.6876 33.5442 66.4614 33.7072 66.2128C33.7658 66.1239 33.8717 66.048 34.0287 65.9868C34.3122 65.8811 34.5668 65.6549 34.7916 65.3101L36.7186 62.3395C36.8619 62.1191 36.9469 61.9614 36.9708 61.8674C36.9966 61.7743 37.0005 61.6274 36.9862 61.4284C36.9719 61.2295 36.9943 61.0824 37.0562 60.9862C37.2225 60.7303 37.4788 60.7105 37.8215 60.9294L39.3579 61.905C39.7007 62.1239 39.7907 62.3599 39.6237 62.6176C39.5618 62.7137 39.4368 62.7962 39.2486 62.8648C39.0596 62.9353 38.9269 62.9989 38.8527 63.061C38.7766 63.1222 38.6672 63.2621 38.523 63.4844L37.2576 65.4342L37.2559 65.4379Z" fill="white"/>
<path d="M28.9176 61.5351C28.3592 60.5848 28.2243 59.5865 28.5099 58.5411C28.7956 57.4958 29.4293 56.6829 30.411 56.1025C31.3335 55.5556 32.3284 55.4248 33.3937 55.7094C34.4591 55.994 35.2655 56.6054 35.8158 57.5426C36.3774 58.5014 36.5213 59.5108 36.2456 60.5701C35.969 61.6313 35.3542 62.4435 34.3974 63.0097C33.4278 63.584 32.4193 63.7295 31.3672 63.4463C30.3152 63.1632 29.4993 62.5264 28.9195 61.536L28.9176 61.5351ZM30.7789 60.6985C31.0061 61.0855 31.3319 61.3311 31.7553 61.4325C32.1787 61.5338 32.5892 61.4682 32.9857 61.2326C33.5311 60.9091 33.8995 60.4528 34.0889 59.8629C34.248 59.3711 34.2015 58.913 33.951 58.485C33.7238 58.0979 33.4018 57.8541 32.9831 57.7526C32.5644 57.6511 32.1578 57.7185 31.7593 57.9532C31.2454 58.2584 30.891 58.6838 30.6963 59.2339C30.5024 59.7822 30.5284 60.2704 30.7798 60.6966L30.7789 60.6985Z" fill="white"/>
<path d="M29.1894 49.4979L30.2828 50.3279C30.4482 50.4507 30.5452 50.5332 30.574 50.5753C30.6028 50.6175 30.6212 50.6927 30.6311 50.8018C30.6446 50.9838 30.6412 51.1024 30.6155 51.1595C30.5905 51.2148 30.5097 51.3133 30.3727 51.4505L29.4173 52.3882L31.8199 52.263C32.0927 52.2484 32.2739 52.2249 32.3671 52.1899C32.4603 52.1549 32.5845 52.0763 32.7413 51.9505C32.8974 51.8265 33.0342 51.7603 33.1508 51.7539C33.4678 51.7373 33.64 51.9256 33.6703 52.3177L33.8063 54.0644C33.8365 54.4565 33.6937 54.6623 33.3786 54.6797C33.2619 54.6861 33.1148 54.634 32.9401 54.527C32.7653 54.4199 32.6294 54.3529 32.5307 54.3298C32.4327 54.3047 32.2483 54.3 31.9754 54.3146L28.3161 54.5069C28.0367 54.5208 27.8373 54.5492 27.7195 54.5884C27.6017 54.6277 27.4718 54.7037 27.3345 54.8163C27.1965 54.9308 27.0722 54.9893 26.961 54.9938C26.6532 55.0101 26.4833 54.8319 26.455 54.4607L26.3457 53.0533C26.329 52.8431 26.3373 52.6934 26.3663 52.6089C26.3962 52.5225 26.4812 52.4148 26.6176 52.284L27.9127 51.022L26.4072 49.8846C26.2582 49.776 26.1619 49.6716 26.1165 49.5706C26.0813 49.4921 26.0554 49.3579 26.0406 49.1686L25.9275 47.7394C25.8986 47.3746 26.0386 47.1854 26.3482 47.1699C26.4576 47.1645 26.5875 47.2043 26.7346 47.292C26.9986 47.4534 27.3428 47.5228 27.7691 47.5008L31.4284 47.3086C31.7013 47.2939 31.8825 47.2705 31.9757 47.2355C32.0689 47.2004 32.193 47.1219 32.3499 46.996C32.5068 46.8702 32.6428 46.8059 32.7594 46.7995C33.0764 46.7829 33.2486 46.9711 33.2789 47.3632L33.4172 49.12C33.4475 49.5121 33.3046 49.7178 32.9895 49.7353C32.8729 49.7417 32.7257 49.6896 32.551 49.5825C32.3763 49.4754 32.2403 49.4085 32.1416 49.3853C32.0436 49.3602 31.8592 49.3555 31.5863 49.3702L29.1838 49.4953L29.1894 49.4979Z" fill="white"/>
<path d="M29.0672 42.4541L29.9463 42.7783L30.0964 42.3493C30.1463 42.2033 30.1375 41.9697 30.0684 41.6521C30.0594 41.6112 30.0653 41.5576 30.0888 41.4904C30.1475 41.3247 30.2925 41.2463 30.5256 41.2561L31.8145 41.3249C31.8836 41.3286 31.9468 41.3403 32.0041 41.3602C32.2354 41.4449 32.3071 41.6099 32.2211 41.8562C32.1952 41.9288 32.1278 42.0125 32.0141 42.1075C31.8252 42.2631 31.6846 42.4735 31.5917 42.7404L31.3922 43.3091L32.3972 43.6783L32.8718 42.3223C32.9672 42.05 32.977 41.7752 32.8985 41.4987C32.8703 41.3991 32.8829 41.275 32.9327 41.129L33.0133 40.8997C33.112 40.6203 33.2534 40.5143 33.4433 40.5843C33.5411 40.6206 33.64 40.6748 33.7411 40.7494L34.8412 41.5608C35.1558 41.7899 35.2775 42.0061 35.2047 42.213C35.1813 42.2802 35.0868 42.4035 34.9222 42.5811C34.8456 42.665 34.7601 42.8444 34.6647 43.1166L33.632 46.0695C33.5061 46.4296 33.2931 46.5524 32.9932 46.4427C32.8814 46.402 32.7657 46.299 32.6462 46.1336C32.5259 45.97 32.4262 45.857 32.3435 45.7973C32.2627 45.7385 32.0925 45.6602 31.8347 45.5633L28.357 44.282C27.9517 44.1324 27.603 44.0954 27.3106 44.1666C27.1386 44.2088 27.0065 44.213 26.9163 44.1802C26.6164 44.0704 26.5244 43.844 26.6432 43.5045L27.528 40.9708C27.6374 40.6574 27.6955 40.3008 27.7019 39.8967C27.7037 39.8217 27.7137 39.7592 27.7334 39.7054C27.7991 39.5191 27.9749 39.4332 28.2598 39.4495L29.7372 39.5206C29.8534 39.5264 29.9528 39.5439 30.0373 39.5742C30.184 39.6287 30.2484 39.7492 30.2296 39.9376C30.2183 39.9931 30.1696 40.1417 30.0868 40.3808C30.0502 40.4874 29.9765 40.5748 29.8658 40.643C29.7552 40.7112 29.6844 40.7718 29.6537 40.8247C29.6229 40.8777 29.565 41.0265 29.479 41.2728L29.067 42.4496L29.0672 42.4541Z" fill="white"/>
<path d="M33.4976 36.6684L35.2787 38.2999C35.4884 38.4915 35.6362 38.6083 35.7258 38.6471C35.8144 38.6879 35.9679 38.7214 36.1843 38.7466C36.3688 38.7619 36.5089 38.8147 36.6027 38.8997C36.8393 39.1176 36.8226 39.3768 36.5518 39.6792L35.3603 41.018C35.0914 41.3213 34.8373 41.3645 34.6007 41.1466C34.5136 41.0671 34.4458 40.9245 34.403 40.7215C34.3601 40.5184 34.3118 40.3732 34.2606 40.2847C34.2094 40.1961 34.0814 40.0607 33.8793 39.8725L31.1433 37.3631C30.9336 37.1715 30.7734 37.0468 30.6601 36.99C30.5476 36.9313 30.3986 36.893 30.2159 36.8739C30.0332 36.8548 29.9016 36.8082 29.8182 36.7304C29.5875 36.5199 29.5998 36.2703 29.8544 35.9836L30.8208 34.8964C31.001 34.6938 31.1237 34.5785 31.1904 34.5465C31.2564 34.5165 31.4008 34.4994 31.6219 34.499L34.3756 34.5147L33.9887 34.1604C33.779 33.9688 33.6189 33.844 33.5055 33.7873C33.3922 33.7305 33.2441 33.6902 33.0613 33.6711C32.8786 33.6521 32.747 33.6055 32.6636 33.5277C32.4329 33.3171 32.4452 33.0675 32.6998 32.7808L33.9065 31.4235C34.1566 31.1417 34.3971 31.1084 34.6279 31.319C34.7102 31.394 34.7709 31.5171 34.8108 31.6863C34.8774 31.9931 35.071 32.291 35.3899 32.5839L38.1259 35.0933C38.3289 35.2795 38.4776 35.3943 38.5673 35.4379C38.6597 35.4804 38.8058 35.5151 39.01 35.5371C39.2133 35.561 39.359 35.6118 39.4471 35.6941C39.6837 35.912 39.667 36.1712 39.3962 36.4737L38.1957 37.8222C37.9268 38.1255 37.6698 38.1651 37.4276 37.9446C37.3452 37.8696 37.2822 37.7315 37.2387 37.5351C37.196 37.3368 37.1536 37.2036 37.1169 37.1333C37.0803 37.0631 36.9856 36.9499 36.8355 36.7927L36.744 36.6926L33.4928 36.6638L33.4976 36.6684Z" fill="white"/>
<path d="M40.835 29.6637L42.515 32.8078C42.6428 33.0451 42.7415 33.2003 42.812 33.2714C42.8825 33.3426 43.0087 33.4265 43.19 33.525C43.3721 33.6216 43.4893 33.7207 43.5453 33.8239C43.6939 34.101 43.5913 34.3185 43.2423 34.4807L41.7044 35.1913C41.3535 35.3527 41.1052 35.2966 40.9566 35.0195C40.9025 34.9172 40.8876 34.7683 40.9148 34.5764C40.9402 34.3837 40.9458 34.2399 40.927 34.1452C40.9081 34.0504 40.8352 33.8835 40.7083 33.6444L39.0282 30.5003L38.9214 30.5501C38.6685 30.6662 38.4991 30.7991 38.4167 30.9463C38.3325 31.0926 38.2325 31.193 38.1168 31.2473L37.8149 31.386C37.6333 31.4703 37.4998 31.4326 37.4135 31.2702C37.3783 31.2067 37.3514 31.1147 37.3293 30.997L37.0575 29.512C37.0113 29.2455 37.0702 29.0746 37.2321 28.9985C37.2981 28.9685 37.4605 28.9421 37.7228 28.9164C37.8995 28.8987 38.0973 28.8391 38.3191 28.7367L39.7208 28.0904C39.9799 27.9707 40.2223 27.8024 40.4469 27.5873C40.5109 27.5264 40.5749 27.4805 40.6408 27.4506C40.8287 27.3627 41.0268 27.4237 41.2361 27.6319L42.33 28.7246C42.387 28.7853 42.4399 28.8548 42.4867 28.928C42.5793 29.0867 42.5284 29.2096 42.3333 29.2985L42.002 29.4517C41.9183 29.4907 41.7583 29.4967 41.5255 29.467C41.387 29.4507 41.1592 29.5159 40.8422 29.6627L40.835 29.6637Z" fill="white"/>
<path fill-rule="evenodd" clip-rule="evenodd" d="M52.1623 37.036C59.4023 38.7709 63.8981 46.0721 62.2073 53.3413C60.5165 60.6105 53.2738 65.1001 46.0365 63.3643C38.7965 61.6295 34.3007 54.3283 35.9923 47.0572C37.684 39.7861 44.9231 35.2994 52.1631 37.0342L52.1623 37.036ZM45.6946 40.8837C45.0004 40.7179 44.0444 42.2816 43.557 44.3788C43.0695 46.4759 43.2354 48.3087 43.927 48.4755C44.6194 48.6405 45.5753 47.0767 46.0646 44.9804C46.5521 42.8833 46.3862 41.0505 45.6946 40.8837ZM38.3821 49.4723C37.9366 49.7722 37.8195 49.894 37.9166 49.9342C38.0147 49.9771 38.327 49.9384 38.5294 49.9269C38.73 49.9146 38.8178 49.9262 38.9072 50.1407C38.9966 50.3552 39.0848 50.7737 39.3298 51.38C39.574 51.9881 39.9714 52.7823 40.5252 53.6328C41.0789 54.4833 41.7853 55.3884 42.7077 56.2372C43.6282 57.0852 44.7603 57.877 45.9517 58.3848C47.1432 58.8926 48.3933 59.1183 49.6278 59.1034C50.8614 59.0904 52.0796 58.8367 53.1479 58.4386C54.2163 58.0404 55.1403 57.5003 55.8967 56.8898C56.6558 56.2783 57.2508 55.5981 57.6125 55.2285C57.9735 54.8609 58.0974 54.8023 58.3819 54.9331C58.6646 55.063 59.1059 55.3816 59.2023 55.2614C59.2986 55.1411 59.0463 54.5804 58.7594 53.9883C58.4707 53.3953 58.1473 52.7663 57.994 52.6491C57.8426 52.5328 57.8631 52.9246 57.8884 53.232C57.9146 53.5375 57.9466 53.7613 57.6476 54.1685C57.3486 54.5758 56.7196 55.1693 55.772 55.7074C54.8244 56.2456 53.5575 56.7303 51.9364 56.8209C50.3153 56.9115 48.3375 56.6091 46.5346 55.978C44.7335 55.3477 43.1055 54.3879 41.995 53.4059C40.8844 52.4239 40.2888 51.4207 39.9708 50.7698C39.6528 50.1189 39.6144 49.821 39.7406 49.5167C39.8685 49.2086 40.1638 48.893 40.2952 48.6755C40.4266 48.458 40.4004 48.3392 39.9988 48.517C39.5991 48.6956 38.8277 49.1725 38.3803 49.4715L38.3821 49.4723ZM56.2503 43.4138C55.5579 43.2488 54.6001 44.8117 54.1126 46.9089C53.6252 49.006 53.7911 50.8388 54.4826 51.0056C55.175 51.1706 56.1328 49.6077 56.6203 47.5105C57.1078 45.4134 56.9418 43.5806 56.2503 43.4138Z" fill="white"/>
</g>
<defs>
<filter id="filter0_d_5168_3941" x="3.3855" y="8.05273" width="91.8381" height="92.1616" filterUnits="userSpaceOnUse" color-interpolation-filters="sRGB">
<feFlood flood-opacity="0" result="BackgroundImageFix"/>
<feColorMatrix in="SourceAlpha" type="matrix" values="0 0 0 0 0 0 0 0 0 0 0 0 0 0 0 0 0 0 127 0" result="hardAlpha"/>
<feOffset dy="4"/>
<feGaussianBlur stdDeviation="8"/>
<feComposite in2="hardAlpha" operator="out"/>
<feColorMatrix type="matrix" values="0 0 0 0 0.282353 0 0 0 0 0.282353 0 0 0 0 0.282353 0 0 0 0.16 0"/>
<feBlend mode="normal" in2="BackgroundImageFix" result="effect1_dropShadow_5168_3941"/>
<feBlend mode="normal" in="SourceGraphic" in2="effect1_dropShadow_5168_3941" result="shape"/>
</filter>
</defs>
</svg>
