<svg width="168" height="170" viewBox="0 0 168 170" fill="none" xmlns="http://www.w3.org/2000/svg">
<path d="M70.6338 139.842C40.4387 132.15 21.9679 101.297 29.4603 71.0596C36.9527 40.8221 67.6083 22.4796 97.8035 30.1721C127.999 37.8646 146.469 68.7174 138.977 98.955C131.485 129.192 100.829 147.535 70.6338 139.842Z" fill="white"/>
<path d="M109.792 126.813C132.932 112.255 140.023 81.6123 125.631 58.3693C111.239 35.1263 80.8133 28.0851 57.6733 42.6423C34.5333 57.1995 27.4418 87.8427 41.834 111.086C56.2261 134.329 86.6519 141.37 109.792 126.813Z" fill="#CFEA4A"/>
<path fill-rule="evenodd" clip-rule="evenodd" d="M94.4105 41.2286C106.187 44.2253 115.648 51.7691 121.431 61.5476C127.21 71.3252 129.303 83.3358 126.347 95.2626C123.387 107.188 115.937 116.769 106.28 122.625C96.6239 128.478 84.763 130.599 72.9852 127.605C61.2083 124.609 51.744 117.064 45.9687 107.287C40.1897 97.5097 38.0925 85.4982 41.0525 73.5723C44.0126 61.6465 51.4628 52.0659 61.1188 46.2134C70.7747 40.3608 82.6356 38.2401 94.4134 41.2332L94.4105 41.2286ZM66.8421 52.0311C66.5116 51.495 65.811 51.3308 65.2815 51.6655C64.752 52.0001 64.5898 52.7096 64.9203 53.2458L65.5519 54.2757C57.5643 59.2022 52.206 66.8922 49.9835 75.4198C47.7056 84.1559 48.7213 93.7745 53.5649 102.194L53.5726 102.212C58.4207 110.628 66.1749 116.257 74.7982 118.563C83.4252 120.869 92.9238 119.84 101.238 114.935L101.256 114.927C109.568 110.017 115.127 102.164 117.404 93.4321C119.673 84.7177 118.673 75.1344 113.865 66.7311L114.72 66.2355C115.26 65.923 115.449 65.2159 115.136 64.6719C114.828 64.1251 114.129 63.9338 113.592 64.2509L109.416 66.6814C108.876 66.9938 108.687 67.7009 109 68.2449C109.309 68.7917 110.007 68.983 110.544 68.666L111.49 68.1164C115.924 75.8665 116.851 84.6969 114.758 92.725C112.661 100.772 107.53 108.013 99.866 112.533L99.8486 112.541C92.1852 117.057 83.4438 118.002 75.5012 115.88C67.5548 113.757 60.4043 108.562 55.9413 100.801L55.9337 100.783C51.4744 93.0235 50.5412 84.1717 52.6372 76.1286C54.6847 68.2639 59.6289 61.1729 67.004 56.6368L67.4683 57.3902C67.7988 57.9264 68.4994 58.0905 69.0289 57.7559C69.5584 57.4212 69.7206 56.7117 69.3901 56.1755L66.8449 52.0358L66.8421 52.0311ZM81.8541 55.0899C80.6879 54.7929 79.4951 55.5179 79.2026 56.6951L73.1686 81.0106C72.8753 82.1916 73.5912 83.3994 74.7536 83.6955C75.9199 83.9925 77.1126 83.2675 77.4051 82.0903L83.4391 57.7748C83.7325 56.5939 83.0166 55.3861 81.8541 55.0899ZM98.035 59.4588C96.8688 59.1618 95.676 59.8868 95.3835 61.064L89.3496 85.3794C89.0562 86.5604 89.7721 87.7682 90.9346 88.0643C92.1008 88.3613 93.2936 87.6363 93.5861 86.4591L99.6201 62.1437C99.9134 60.9627 99.1975 59.7549 98.035 59.4588ZM119.068 62.9832C113.653 53.8168 104.78 46.743 93.7412 43.9349C82.7022 41.1269 71.582 43.1166 62.5289 48.6042C53.4757 54.0917 46.4905 63.0734 43.7168 74.252C40.9432 85.4306 42.9075 96.6912 48.3224 105.858C53.741 115.025 62.6102 122.098 73.6492 124.906C84.6882 127.714 95.8083 125.724 104.861 120.24C113.914 114.753 120.899 105.771 123.673 94.5924C126.446 83.4138 124.482 72.1533 119.067 62.9869L119.068 62.9832Z" fill="#030306"/>
</svg>
