<svg width="181" height="154" viewBox="0 0 181 154" fill="none" xmlns="http://www.w3.org/2000/svg">
<g filter="url(#filter0_d_5168_4303)">
<path d="M146.705 111.597L148.806 108.968C149.667 107.883 150.336 106.749 150.796 105.599C151.932 102.756 151.61 99.6002 149.923 96.7698C152.226 95.8166 154.366 94.4673 156.305 92.7201C159.08 90.2145 161.221 87.1105 162.671 83.4944C164.147 79.8109 164.725 76.0093 164.389 72.1962C164.033 68.2004 162.733 64.6219 160.513 61.5645C158.98 59.4543 157.123 57.6516 154.981 56.2091C153.122 54.9573 150.721 53.7333 147.625 52.4673L139.488 49.1362C136.541 47.9261 133.582 48.0682 131.177 49.3167C128.626 45.3144 124.954 42.264 120.372 40.3897C114.24 37.8755 107.868 37.8622 101.95 40.3502C101.656 40.4767 101.367 40.6054 101.081 40.741C101.003 40.536 100.932 40.3285 100.85 40.1212C98.4472 34.0798 93.9907 29.5857 87.9615 27.1164C82.4216 24.847 76.6946 24.6264 71.2787 26.4343C70.9626 25.7786 70.5846 25.1097 70.1195 24.4096C67.3078 20.2046 63.583 17.134 59.0537 15.2799C52.9923 12.7948 46.6809 12.8456 40.805 15.4234C34.9655 17.9845 30.5692 22.6059 28.0927 28.7909C26.1496 33.6378 25.7167 38.6044 26.7766 43.3597C22.3403 43.0531 18.8869 45.7549 17.4773 49.2639C16.6215 51.4047 16.5963 53.8149 17.4008 56.4136C17.7473 57.5388 17.7482 58.0227 17.7484 58.0342L17.5023 81.6617C17.4853 83.3912 17.5905 85.4109 18.5009 87.2674C19.5005 89.3288 21.2786 90.8918 23.7799 91.9177L28.5412 93.8684C30.9437 94.8516 33.2312 94.9728 35.3373 94.2166C36.2549 93.89 37.0565 93.4144 37.7661 92.8821C38.2959 95.8524 40.2573 98.6678 44.0356 100.217L50.9582 103.05C52.4213 103.647 53.8189 103.918 55.1267 103.927C56.0652 104.836 57.247 105.629 58.7055 106.224L70.4308 111.027C74.2757 112.603 77.689 113.219 80.7926 112.93C81.8103 114.775 83.5204 116.386 86.0538 117.427L98.8609 122.676C99.0608 122.756 99.2101 122.824 99.3273 122.876C100.441 123.917 101.497 124.723 102.767 125.249C104.633 126.014 107.035 126.215 109.448 125.293C110.431 126.31 111.583 127.307 112.93 128.301C115.074 129.883 117.324 131.16 119.612 132.098C124.72 134.19 129.641 134.528 134.243 133.103C139.353 131.519 143.115 128.042 145.118 123.035C146.454 119.702 146.655 116.193 145.703 112.751C146.165 112.287 146.491 111.866 146.694 111.608L146.705 111.597Z" fill="white"/>
<path d="M44.0577 53.3038C47.4708 54.6993 50.777 55.1257 53.9807 54.5738C54.8668 54.4304 55.5238 54.1574 55.9473 53.7524C56.2273 53.4603 56.5589 52.8498 56.9309 51.9212L58.2617 48.605C58.7644 47.3567 59.3919 46.4792 60.1578 45.9789C60.9237 45.4786 61.383 45.0224 61.5491 44.6171C61.7107 44.2095 61.7231 43.7745 61.5772 43.3076C61.3314 42.7688 60.6389 42.2625 59.502 41.7958L53.5296 39.3497C52.0506 38.7437 51.0909 38.9941 50.6457 40.0987C50.4708 40.5341 50.4977 41.0858 50.7242 41.7584C51.1076 42.8633 51.0845 43.9518 50.6527 45.0286C50.522 45.3482 50.3823 45.6634 50.2244 45.9696C49.3686 45.9561 48.5841 45.8057 47.8729 45.5137C45.9682 44.7329 44.6676 43.2636 43.9779 41.1033C43.2883 38.943 43.3907 36.742 44.2897 34.5026C45.0581 32.5829 46.1986 31.2068 47.7092 30.3676C49.2197 29.5284 50.7427 29.4229 52.2806 30.0578C54.1287 30.8165 55.2085 32.3377 55.5154 34.6309C55.6037 35.2414 55.7266 35.6512 55.8929 35.8532C56.0593 36.0552 56.4585 36.2855 57.0813 36.5399C57.9895 36.9114 58.5824 37.088 58.8576 37.0628C59.1306 37.0422 59.6409 36.76 60.3884 36.2163L63.5135 33.9933C64.3509 33.3906 64.8438 32.9109 64.9833 32.5612C65.3331 31.6905 65.0031 30.4859 63.9933 28.9588C62.0537 26.03 59.5359 23.9342 56.4308 22.6671C52.2499 20.9576 48.146 20.9928 44.1189 22.7844C40.0941 24.5713 37.2037 27.6486 35.4566 32.0092C33.7095 36.3697 33.6522 40.5806 35.2868 44.6371C36.9215 48.6936 39.8451 51.5787 44.0577 53.3038Z" fill="#FF7CFC"/>
<path d="M94.9064 55.7296C96.6595 51.3394 96.6892 47.0534 94.9979 42.89C93.3088 38.7219 90.3525 35.7755 86.1358 34.0367C81.7406 32.2276 77.468 32.185 73.313 33.8953C69.158 35.6056 66.2173 38.6338 64.4861 42.9661C62.7816 47.2428 62.8087 51.4822 64.5718 55.6752C66.3327 59.8728 69.3401 62.8443 73.5891 64.5875C77.7502 66.2989 81.9321 66.2796 86.1303 64.539C90.3307 62.7937 93.2568 59.8557 94.904 55.7227L94.9064 55.7296ZM82.3315 56.758C80.7083 57.4783 79.0361 57.4874 77.3169 56.7806C75.4263 56.001 74.1186 54.6029 73.4028 52.5792C72.5398 50.1568 72.5968 47.7281 73.5691 45.2794C74.2769 43.5025 75.4539 42.2538 77.0999 41.5217C78.7436 40.7943 80.425 40.7782 82.1441 41.485C84.0347 42.2646 85.3495 43.8036 86.0931 46.1044C86.8345 48.4097 86.7476 50.7092 85.8302 53.0074C85.1224 54.7843 83.9523 56.0307 82.3291 56.7511L82.3315 56.758Z" fill="#FF7CFC"/>
<path d="M105.587 77.6246C109.747 79.3357 113.929 79.3161 118.129 77.5706C122.329 75.8252 125.255 72.8871 126.902 68.7541C128.655 64.3639 128.685 60.078 126.994 55.9148C125.305 51.747 122.35 48.8008 118.134 47.0624C113.739 45.2535 109.467 45.2113 105.312 46.9218C101.158 48.6323 98.2173 51.6605 96.4862 55.9928C94.7816 60.2694 94.8084 64.5088 96.5711 68.7015C98.3315 72.8989 101.338 75.8702 105.587 77.613L105.587 77.6246ZM109.099 54.5592C110.742 53.8317 112.423 53.8155 114.142 54.5222C116.033 55.3017 117.347 56.8406 118.09 59.1412C118.832 61.4465 118.745 63.7458 117.827 66.044C117.119 67.8209 115.949 69.0673 114.326 69.7878C112.703 70.5082 111.031 70.5174 109.312 69.8107C107.422 69.0312 106.114 67.6332 105.399 65.6097C104.536 63.1874 104.593 60.7588 105.566 58.3101C106.273 56.5332 107.45 55.2844 109.096 54.5523L109.099 54.5592Z" fill="#FF7CFC"/>
<path d="M144.943 90.0052C147.341 89.4618 149.495 88.3278 151.411 86.6008C153.325 84.8785 154.788 82.7459 155.805 80.2099C156.83 77.6437 157.227 75.0619 156.994 72.4575C156.761 69.8532 155.944 67.5813 154.538 65.6514C153.523 64.2524 152.306 63.0754 150.896 62.1245C149.481 61.1714 147.479 60.1652 144.887 59.0991L136.762 55.7685C135.292 55.1671 134.308 55.4929 133.806 56.7435C133.653 57.1217 133.662 57.6827 133.835 58.4335C134.132 59.7093 133.938 61.1918 133.265 62.8809L127.46 77.3917C127.028 78.4706 126.679 79.1768 126.414 79.5055C126.146 79.8389 125.649 80.2374 124.927 80.7032C124.205 81.169 123.747 81.6385 123.564 82.1049C123.061 83.3555 123.588 84.3029 125.143 84.9403L133.567 88.3943C137.912 90.1786 141.705 90.7156 144.943 90.0052ZM141.385 66.2092L142.381 66.6177C144.339 67.4188 145.663 68.2182 146.351 69.0091C148.101 71.0851 148.341 73.7102 147.075 76.8866C146.05 79.4527 144.484 81.0992 142.383 81.8285C141.378 82.1614 140.389 82.2494 139.413 82.0855C138.818 81.977 137.858 81.6489 136.535 81.1081C136.188 80.9667 135.865 80.8482 135.565 80.764L141.385 66.2092Z" fill="#FF7CFC"/>
<path d="M54.0518 61.4012L46.6888 58.3801C44.9758 57.6748 43.8813 57.9306 43.3984 59.1383C43.2126 59.5966 43.2651 60.308 43.5446 61.2612C43.7696 62.0233 43.7848 62.6484 43.5903 63.1365C43.4527 63.4825 43.0911 63.9678 42.5077 64.5992L34.747 72.919L34.8389 61.3486C34.8465 60.5818 34.9378 59.9807 35.1105 59.5498C35.2831 59.119 35.5475 58.7899 35.9014 58.5671C37.0845 57.845 37.7788 57.2284 37.9886 56.7082C38.4279 55.615 37.8467 54.7403 36.2451 54.084L28.4119 50.8718C26.8443 50.2266 25.8157 50.5089 25.3328 51.7166C25.1515 52.1772 25.1945 52.85 25.473 53.7347C25.9361 55.2313 26.1661 56.5341 26.1562 57.6341L25.9632 80.9232C25.9533 82.0232 26.0353 82.7434 26.1957 83.0772C26.3607 83.4132 26.8146 83.7324 27.5552 84.0395L32.2647 85.9728C32.9213 86.2442 33.4148 86.3166 33.7453 86.2013C34.0713 86.0838 34.5873 85.6516 35.2843 84.9003L50.1254 69.0826C51.562 67.5613 52.7458 66.5562 53.6721 66.0649C54.9711 65.394 55.731 64.7812 55.9472 64.2359C56.417 63.0557 55.7851 62.1108 54.0449 61.3921L54.0518 61.4012Z" fill="#FF7CFC"/>
<path d="M56.7122 90.8463C56.756 90.4059 56.9927 89.6561 57.4154 88.5992L63.2806 74.0083C63.9606 72.3099 64.847 71.0997 65.9262 70.3825C66.558 69.9594 66.9579 69.5437 67.1211 69.1331C67.6155 67.9036 67.1376 66.9935 65.6987 66.4025L58.8134 63.5938C57.3678 63.0053 56.4001 63.3269 55.9057 64.5564C55.729 64.9951 55.7262 65.5941 55.9018 66.3443C56.0751 67.0991 56.1287 67.7432 56.0627 68.2766C55.9966 68.8099 55.7399 69.6365 55.2902 70.7494L49.4251 85.3403C48.9889 86.4252 48.6372 87.1359 48.3724 87.4677C48.1053 87.8042 47.6107 88.2081 46.8935 88.6816C46.1762 89.1551 45.7203 89.6298 45.5347 90.0987C45.0269 91.3563 45.5387 92.3003 47.0677 92.924L53.865 95.6953C55.4212 96.3323 56.4565 96.0208 56.9598 94.761C57.1589 94.2641 57.1661 93.6325 56.977 92.8757C56.7514 91.9625 56.6572 91.2869 56.7055 90.8487L56.7122 90.8463Z" fill="#FF7CFC"/>
<path d="M86.5705 91.2655C89.1458 90.5744 90.9129 89.0247 91.8765 86.6184C92.4053 85.2872 92.6065 83.875 92.4733 82.3841C92.3379 80.8978 91.9034 79.6296 91.1722 78.5862C90.2451 77.2586 88.3852 76.0258 85.5968 74.8788L73.6979 69.9818C72.2146 69.3731 71.2328 69.6778 70.7478 70.8936C70.5877 71.2996 70.5914 71.8774 70.7682 72.6199C71.0743 73.8935 70.888 75.3701 70.221 77.0496L64.4667 91.4779C64.052 92.5229 63.7042 93.2131 63.435 93.5599C63.1613 93.9044 62.6658 94.3054 61.9417 94.7652C61.2176 95.225 60.7601 95.6902 60.5781 96.1539C60.0798 97.3974 60.6163 98.3452 62.1852 98.9902L73.9984 103.851C77.2844 105.202 79.9766 105.618 82.0751 105.097C84.8504 104.419 86.8062 102.643 87.9519 99.7727C89.1765 96.702 88.7152 93.864 86.5773 91.2631L86.5705 91.2655ZM78.5245 80.0099L81.0121 81.032C83.0439 81.8701 83.7746 83.0101 83.1951 84.4589C82.5938 85.9654 81.2772 86.2997 79.2432 85.4661L76.7556 84.444L78.5245 80.0099ZM78.2134 96.8319C77.5909 96.9481 76.5693 96.7144 75.1461 96.1238L72.5289 95.0495L74.4361 90.267L76.7455 91.2187C78.6338 91.9978 79.7444 92.8226 80.0684 93.7002C80.2663 94.2193 80.249 94.7696 80.0231 95.3487C79.6896 96.1884 79.0856 96.6843 78.2134 96.8319Z" fill="#FF7CFC"/>
<path d="M112.015 108.738L111.029 108.333C110.399 108.074 109.871 107.991 109.434 108.082C108.237 108.328 107.056 108.213 105.885 107.734L100.06 105.344L101.715 101.196L104.158 102.197C105.299 102.667 106.201 103.32 106.861 104.16C107.259 104.656 107.613 104.971 107.929 105.098C108.986 105.532 109.706 105.273 110.082 104.324C110.176 104.093 110.229 103.829 110.245 103.537L110.62 98.1081C110.679 97.128 110.354 96.4921 109.64 96.1983C109.354 96.0803 109.123 96.0349 108.947 96.0618C107.566 96.2683 106.567 96.2424 105.937 95.9842L104.096 95.2274L105.548 91.5977L110.603 93.6719C111.66 94.1059 112.299 94.3914 112.527 94.5374C112.75 94.6811 113.01 94.9958 113.294 95.4814C113.579 95.9669 113.952 96.3032 114.411 96.4947C115.441 96.9153 116.072 97.1574 116.311 97.2234C117.124 97.3563 117.647 97.1201 117.892 96.5147C118.03 96.1685 118.113 95.7498 118.144 95.2609L118.54 89.0371C118.623 87.8307 118.264 87.0651 117.467 86.7356C117.237 86.6399 116.963 86.5789 116.646 86.548C114.91 86.4043 113.369 86.0554 112.028 85.5103L101.152 81.0479C99.6946 80.4515 98.7202 80.7724 98.2238 82.0083C98.0728 82.3821 98.0826 82.9367 98.2553 83.6792C98.5504 84.941 98.3599 86.4066 97.6953 88.0759L91.962 102.416C91.5357 103.482 91.1902 104.18 90.9279 104.505C90.6633 104.834 90.1713 105.228 89.4564 105.687C88.7416 106.147 88.289 106.611 88.1076 107.071C87.6112 108.307 88.1347 109.245 89.6757 109.877L102.35 115.08C103.52 115.559 104.288 115.975 104.643 116.326C105.408 117.075 105.931 117.508 106.217 117.626C107.102 117.987 108.047 117.538 109.052 116.274L112.613 111.855C112.94 111.454 113.183 111.052 113.343 110.648C113.654 109.871 113.211 109.234 112.013 108.742L112.015 108.738Z" fill="#FF7CFC"/>
<path d="M137.302 110.386C136.596 109.473 135.123 107.845 132.882 105.502C131.257 103.789 130.636 102.448 131.021 101.492C131.496 100.3 132.496 100.018 134.021 100.641C135.805 101.374 136.878 102.914 137.243 105.263C137.329 105.803 137.486 106.184 137.719 106.395C137.95 106.612 138.513 106.9 139.404 107.263C140.011 107.509 140.444 107.596 140.708 107.52C140.971 107.443 141.311 107.135 141.728 106.595L143.836 103.956C144.239 103.444 144.536 102.955 144.724 102.492C145.002 101.792 144.805 100.986 144.136 100.067C143.355 99.0028 142.202 97.9103 140.676 96.7944C139.15 95.6785 137.62 94.8069 136.097 94.1795C132.965 92.8933 130.128 92.576 127.59 93.23C124.711 93.98 122.713 95.7636 121.582 98.5854C120.721 100.738 120.719 102.918 121.578 105.132C122.162 106.689 123.634 108.7 125.994 111.158C127.829 113.096 128.962 114.407 129.394 115.089C129.824 115.775 129.923 116.408 129.691 116.986C129.167 118.292 127.987 118.571 126.146 117.816C123.845 116.875 122.504 114.579 122.122 110.934C122.056 110.432 121.502 109.971 120.467 109.543C119.718 109.238 119.225 109.11 118.988 109.166C118.748 109.22 118.403 109.526 117.943 110.084L114.653 114.163C114.323 114.568 114.093 114.93 113.967 115.252C113.632 116.095 113.858 117.087 114.66 118.226C115.46 119.368 116.685 120.548 118.342 121.768C119.995 122.986 121.683 123.953 123.412 124.658C126.889 126.086 130.093 126.348 133.008 125.45C135.93 124.55 137.959 122.678 139.099 119.826C139.945 117.706 139.934 115.565 139.053 113.41C138.59 112.307 138.004 111.298 137.304 110.382L137.302 110.386Z" fill="#FF7CFC"/>
</g>
<defs>
<filter id="filter0_d_5168_4303" x="0.815918" y="1.45239" width="179.666" height="152.515" filterUnits="userSpaceOnUse" color-interpolation-filters="sRGB">
<feFlood flood-opacity="0" result="BackgroundImageFix"/>
<feColorMatrix in="SourceAlpha" type="matrix" values="0 0 0 0 0 0 0 0 0 0 0 0 0 0 0 0 0 0 127 0" result="hardAlpha"/>
<feOffset dy="4"/>
<feGaussianBlur stdDeviation="8"/>
<feComposite in2="hardAlpha" operator="out"/>
<feColorMatrix type="matrix" values="0 0 0 0 0.282353 0 0 0 0 0.282353 0 0 0 0 0.282353 0 0 0 0.16 0"/>
<feBlend mode="normal" in2="BackgroundImageFix" result="effect1_dropShadow_5168_4303"/>
<feBlend mode="normal" in="SourceGraphic" in2="effect1_dropShadow_5168_4303" result="shape"/>
</filter>
</defs>
</svg>
