<svg width="154" height="132" viewBox="0 0 154 132" fill="none" xmlns="http://www.w3.org/2000/svg">
<g filter="url(#filter0_d_5168_4315)">
<path fill-rule="evenodd" clip-rule="evenodd" d="M109.58 97.7959C108.641 98.1466 107.658 98.4104 106.66 98.5759C100.871 99.5402 94.7269 97.5753 88.8935 92.8991C86.9826 95.1616 84.6005 96.8388 81.8187 97.8788C80.77 98.2709 79.6633 98.5684 78.5302 98.7626C76.6429 99.086 74.6427 99.0516 72.5868 98.6633C71.5895 101.301 69.6331 103.36 67.0787 104.45L64.5567 105.535L64.2682 105.646C63.9317 105.768 63.5899 105.877 63.2541 105.962C61.4038 108.124 59.0782 109.738 56.3441 110.764C51.0667 112.74 45.482 111.984 40.6136 108.643C37.0163 106.174 34.2816 102.764 32.4849 98.514L18.4462 63.7039C16.3506 58.3161 16.4643 52.8549 18.7663 47.9049C21.026 43.0659 24.9668 39.4858 30.1624 37.5395C35.3299 35.6046 40.5511 35.7405 45.261 37.9284C45.6273 38.1007 45.9811 38.2784 46.3299 38.467L46.3375 38.4725C48.5221 34.9929 51.6818 32.3427 55.2293 31.0137C58.899 29.6379 62.7313 29.6737 66.3123 31.111L76.5979 35.2418C77.5158 34.2729 78.5208 33.4141 79.5837 32.6904C78.4717 30.3379 78.3171 27.6685 79.152 25.181C80.0018 22.6407 81.7791 20.5847 84.155 19.3957C91.9966 15.4001 93.4661 14.6405 93.7332 14.4997L94.1026 14.312C94.3869 14.1751 94.664 14.0562 94.9432 13.9503C105.259 10.1272 114.637 13.7504 119.435 23.3993L135.034 55.3252C135.2 55.6578 135.341 55.9875 135.479 56.3582L136.071 57.9789C138.153 63.6847 137.641 69.4425 134.621 74.1865L134.581 74.2501C133.437 75.9983 132.612 76.5221 129.876 78.2502L129.773 78.314C127.668 79.6437 123.75 82.1216 120.946 83.9682L120.918 83.986L120.904 84.0421C119.095 90.7498 114.958 95.783 109.567 97.8012L109.58 97.7959Z" fill="white"/>
<path fill-rule="evenodd" clip-rule="evenodd" d="M108.288 92.1035C107.686 92.3282 107.058 92.4937 106.42 92.6006C101.149 93.4773 96.2594 90.6622 93.0894 88.1454L88.7641 84.7143L85.1633 88.9324C83.8872 90.4287 82.2933 91.5392 80.4301 92.2326C79.7144 92.4992 78.9523 92.7032 78.169 92.8371C76.9405 93.0468 75.6116 93.0223 74.2155 92.7616L69.5087 91.887L67.7892 96.3737C67.3496 97.5237 66.4958 98.4171 65.3852 98.888L62.9432 99.9326L62.8459 99.9718C62.6851 100.031 62.5259 100.081 62.3718 100.119L60.6234 100.567L59.4405 101.934C58.2241 103.344 56.6788 104.403 54.8504 105.084C51.2881 106.411 47.6308 105.907 44.2746 103.627C41.587 101.8 39.5367 99.2516 38.1719 96.0541L24.2009 61.6304C22.6749 57.7278 22.7376 53.9744 24.3916 50.47C26.0289 47.0084 28.8048 44.5238 32.6382 43.0961C36.4212 41.6867 40.0465 41.7554 43.4071 43.2997C43.6627 43.4184 43.9199 43.5469 44.1744 43.6792L48.8658 46.1926L51.732 41.6764C53.2588 39.2712 55.4157 37.4549 57.8087 36.5651C60.1761 35.6829 62.5379 35.6965 64.823 36.6007L78.7243 42.112L81.4011 39.3163C82.0433 38.6476 82.7352 38.061 83.462 37.5689L87.5738 34.7938L85.4483 30.3274C84.974 29.3293 84.9121 28.2374 85.2751 27.1734C85.6443 26.0849 86.3823 25.2404 87.4099 24.7295C93.0295 21.8863 96.5341 20.1081 97.1233 19.8019L97.3366 19.6938C97.4638 19.6331 97.5764 19.5847 97.6932 19.5424C105.292 16.7416 111.663 19.1355 115.159 26.1107L130.749 57.7869C130.841 57.9689 130.899 58.1031 130.957 58.2606L131.548 59.8709C133.016 63.8698 132.701 67.6775 130.635 70.8917C130.174 71.5909 130.14 71.6098 127.655 73.1656L127.555 73.2286C125.262 74.6664 121.426 77.0729 118.597 78.9217L116.763 80.1212L116.158 82.2531C114.815 87.1628 111.947 90.7576 108.297 92.1187L108.288 92.1035Z" fill="#030306"/>
<path d="M64.9558 96.499C65.1626 97.0026 64.9229 97.5756 64.4254 97.792L62.043 98.8128C61.6053 99.0025 61.0974 98.8523 60.8335 98.4561L60.6531 98.1849C60.1856 97.4772 59.1187 97.665 58.8806 98.4844C58.0874 101.233 56.4449 103.069 53.9541 103.999C51.4157 104.947 48.914 104.585 46.4474 102.903C44.2667 101.414 42.6308 99.3466 41.5184 96.7135L27.4649 61.9334C26.2977 58.9511 26.3428 56.129 27.5904 53.4688C28.8418 50.8113 30.9634 48.9207 33.9623 47.7992C36.8944 46.7021 39.6277 46.739 42.1649 47.9062C44.7031 49.0799 46.5821 51.1114 47.7856 54.0033L49.5175 58.3565C49.7341 60.5311 50.1384 62.7662 50.7091 65.0113L45.1625 67.3225C44.6542 67.5339 44.0751 67.2939 43.8679 66.7871L39.7626 56.6716C38.9099 54.5367 37.731 53.7527 36.2345 54.3112C34.6078 54.9181 34.2615 56.3127 35.2044 58.4869L49.5067 93.9529C50.4256 96.06 51.6057 96.8507 53.0353 96.3165C54.662 95.7097 55.0279 94.2679 54.1277 92.0022L49.8732 81.4921C49.6659 80.9853 49.0929 80.7409 48.5873 80.9485L47.0379 81.5765C46.5323 81.7841 45.9522 81.5375 45.7482 81.0302L43.8842 76.3708C43.683 75.8596 43.926 75.286 44.431 75.0752L52.8601 71.5871C54.6562 76.092 57.0685 80.4085 59.9264 84.0711C61.5426 88.1154 63.9238 94.0995 64.6885 96.1237C64.7488 96.2727 64.9026 96.3523 64.9596 96.5018L64.9558 96.499Z" fill="#CFEA4A"/>
<path d="M128.491 60.2168L112.728 28.3261C109.95 22.8065 105.49 21.1699 99.3514 23.4253C99.3195 23.4372 99.288 23.4525 99.2504 23.472C98.8501 23.6819 95.5133 25.369 89.2522 28.5247C88.8597 28.7198 88.6975 29.1965 88.8904 29.5849L92.6367 37.1803C95.0005 37.7282 97.4363 38.9296 99.9402 40.738C102.841 42.831 105.323 45.3886 107.43 48.1791L99.269 31.6426C99.0773 31.2405 99.254 30.7481 99.6755 30.565C100.179 30.3418 100.569 30.1739 100.841 30.0757C102.677 29.393 104.069 30.0257 105.006 31.9656L120.736 63.7509C120.747 63.7793 120.755 63.805 120.769 63.8296L121.045 64.5806C121.483 65.7723 121.389 66.7485 120.767 67.5118C120.717 67.5603 120.67 67.6049 120.621 67.6567C120.236 67.968 119.564 68.3869 118.604 68.9165C118.202 69.1334 117.704 68.9828 117.502 68.5791L115.672 64.8734C115.69 64.9242 115.705 64.9723 115.72 65.0269C116.738 68.4116 117.437 72.742 117.341 77.0042C121.746 74.1448 128.481 69.9979 128.515 69.9521C130.037 67.6172 130.237 64.9374 129.123 61.9176L128.528 60.2982C128.521 60.2758 128.51 60.2474 128.495 60.2196L128.491 60.2168Z" fill="#CFEA4A"/>
<path fill-rule="evenodd" clip-rule="evenodd" d="M79.3616 55.281C80.2983 58.9306 80.5036 68.9647 74.043 69.7815C68.3391 70.502 72.4378 62.5235 69.8505 62.2896C68.2722 62.6391 69.0507 64.8997 66.79 66.2211C62.8934 64.4187 60.257 56.7101 59.7319 53.5307C59.3735 51.3716 59.4323 49.1479 59.7158 47.0268C60.0548 44.4988 61.1092 42.3505 63.6273 40.6639C59.5847 39.0078 55.0488 42.0647 53.5088 47.3057C52.8195 49.6494 52.6274 51.6773 52.5495 53.6525C52.1699 63.6324 57.1606 77.0175 65.4426 85.43C69.1699 89.2158 74.0676 91.8887 77.7509 91.2532C87.2822 89.6119 86.1871 75.1281 84.4397 67.9138C83.782 65.1982 81.4048 57.7058 79.3584 55.2815L79.3616 55.281Z" fill="white"/>
<path fill-rule="evenodd" clip-rule="evenodd" d="M107.326 55.4195C107.99 59.3961 108.32 65.1684 105.216 68.3588C103.662 69.9527 99.8611 70.5971 98.9431 68.8967C98.1466 67.4179 99.3969 63.6527 97.8497 62.3714C95.7442 62.8988 97.1609 65.2864 94.3858 66.379C89.2891 63.1909 86.3688 53.5796 87.548 46.9962C88.0325 44.2913 88.7039 42.6715 91.4646 40.8263C85.0831 38.5418 80.5563 46.1888 80.5311 50.8424C80.5256 51.7447 81.741 53.1686 82.2586 54.1045C85.8077 60.5043 87.6135 66.4167 88.5919 73.1887C89.7512 81.1998 86.5685 79.0971 93.5057 85.9267C96.7257 89.0981 101.562 92.1179 105.967 91.3817C110.941 90.5492 113.026 84.4606 113.428 80.7216C113.844 76.8512 113.533 72.3986 112.388 68.0144C111.64 65.1433 109.405 57.9372 107.323 55.4201L107.326 55.4195Z" fill="white"/>
</g>
<defs>
<filter id="filter0_d_5168_4315" x="0.953125" y="0.453125" width="152.377" height="131.39" filterUnits="userSpaceOnUse" color-interpolation-filters="sRGB">
<feFlood flood-opacity="0" result="BackgroundImageFix"/>
<feColorMatrix in="SourceAlpha" type="matrix" values="0 0 0 0 0 0 0 0 0 0 0 0 0 0 0 0 0 0 127 0" result="hardAlpha"/>
<feOffset dy="4"/>
<feGaussianBlur stdDeviation="8"/>
<feComposite in2="hardAlpha" operator="out"/>
<feColorMatrix type="matrix" values="0 0 0 0 0.282353 0 0 0 0 0.282353 0 0 0 0 0.282353 0 0 0 0.16 0"/>
<feBlend mode="normal" in2="BackgroundImageFix" result="effect1_dropShadow_5168_4315"/>
<feBlend mode="normal" in="SourceGraphic" in2="effect1_dropShadow_5168_4315" result="shape"/>
</filter>
</defs>
</svg>
