<svg width="134" height="20" viewBox="0 0 134 20" fill="none" xmlns="http://www.w3.org/2000/svg">
<path fill-rule="evenodd" clip-rule="evenodd" d="M23.7516 0.0384925C25.0923 -0.218714 26.5232 0.847066 26.6016 2.22031C26.6784 3.2787 25.9083 4.25874 24.9268 4.58543C23.5432 5.06732 21.7575 4.04884 21.7664 2.51447C21.6836 1.326 22.5942 0.242484 23.7516 0.0384925ZM102.398 0.0311015C103.778 -0.146282 105.101 1.14714 105.011 2.5263C105.069 3.41322 104.42 4.23657 103.599 4.51891C102.327 5.01706 100.579 4.37996 100.268 2.95941C99.9083 1.59356 100.983 0.0976204 102.398 0.0311015ZM28.1566 0.198138C29.2195 0.158226 30.2838 0.173008 31.3481 0.190747C31.3643 6.6209 31.3762 13.0525 31.3407 19.4827C30.2808 19.5034 29.2195 19.5182 28.1611 19.4768C28.1286 13.0511 28.1374 6.62386 28.1566 0.198138ZM34.5572 0.201094C35.9541 0.161183 37.3525 0.168574 38.7494 0.195181C40.6533 2.47899 42.5306 4.78498 44.4375 7.06732C45.2431 8.08875 46.1847 9.02888 46.7642 10.21C47.4131 11.5773 47.5846 13.1782 47.1958 14.6446C46.6518 16.8205 44.9682 18.6401 42.9002 19.4709C41.3008 20.1257 39.4663 20.1597 37.8359 19.5965C36.2985 19.0274 34.8957 17.9956 34.0473 16.5766C33.0376 15.0422 32.7538 13.0688 33.2357 11.3024C33.6954 9.63938 34.8085 8.17449 36.2572 7.24618C37.2047 6.58247 38.3414 6.26909 39.4693 6.08727C38.4626 4.79976 37.388 3.56695 36.3518 2.30309C35.7383 1.61425 35.2165 0.847066 34.5572 0.201094ZM39.4323 9.10871C38.2246 9.33635 37.116 10.1538 36.6075 11.2802C35.9911 12.4672 36.1079 13.9853 36.8662 15.0821C37.6614 16.2868 39.1352 16.955 40.5646 16.8264C42.4996 16.7199 44.2867 15.0038 44.2232 13.02C44.3222 11.6349 43.4915 10.3001 42.3133 9.61721C41.456 9.10723 40.4109 8.92689 39.4323 9.10871ZM48.9297 0.177443C49.9911 0.137532 51.0524 0.159705 52.1138 0.159705C52.1389 2.45091 52.1271 4.74211 52.1197 7.03332C52.6799 6.81307 53.1796 6.4583 53.759 6.28239C55.2919 5.78129 56.9903 5.74285 58.5232 6.26761C60.3872 6.84263 61.9527 8.25727 62.7775 10.0178C63.6038 11.8803 63.6141 14.1094 62.6977 15.9409C61.6319 18.1494 59.3762 19.6882 56.9445 19.9365C54.6666 20.2011 52.2823 19.3201 50.7494 17.6098C49.5402 16.2972 48.8662 14.5026 48.9238 12.7199C48.9238 8.5396 48.912 4.35778 48.9297 0.177443ZM55.2535 9.12497C53.858 9.37774 52.6577 10.4583 52.2838 11.8286C51.9763 12.9328 52.1493 14.176 52.807 15.122C53.5506 16.2321 54.9002 16.8929 56.232 16.8264C58.232 16.8825 60.0813 15.1634 60.167 13.1634C60.2926 11.8596 59.6437 10.5411 58.5764 9.79459C57.6363 9.09097 56.3887 8.90471 55.2535 9.12497ZM67.6925 7.31418C69.1116 6.28535 70.9002 5.78572 72.6474 5.92763C74.7006 6.00893 76.6681 7.18853 77.7161 8.95645C78.5824 10.3711 78.7583 12.0814 78.6873 13.7074C75.1958 13.7369 71.7014 13.6985 68.2099 13.7281C68.2645 14.9372 69.1796 15.9424 70.235 16.4332C71.4397 17.0244 72.9194 16.887 74.062 16.2144C74.64 15.8833 75.0687 15.36 75.4648 14.8367C76.3133 15.4738 77.1781 16.108 77.9482 16.8412C77.3215 17.5522 76.7036 18.2927 75.8935 18.8027C74.3133 19.8818 72.2941 20.2307 70.4286 19.8522C68.5942 19.4901 66.9342 18.3297 65.96 16.7332C65.0303 15.2787 64.6888 13.4812 64.9209 11.7769C65.1869 9.9971 66.2172 8.343 67.6925 7.31418ZM68.5986 11.0777C70.7745 11.0924 72.9563 11.1324 75.1308 11.057C74.9031 10.5514 74.6134 10.0488 74.1478 9.72955C73.3303 9.05697 72.201 8.95793 71.1899 9.08949C70.0635 9.23879 68.9608 9.96902 68.5986 11.0777ZM110.293 6.43169C111.803 5.81381 113.521 5.74581 115.091 6.18188C116.579 6.60908 117.926 7.59208 118.695 8.94906C119.576 10.3622 119.744 12.0784 119.639 13.7059C116.158 13.734 112.677 13.7148 109.196 13.7148C109.313 15.1885 110.553 16.3622 111.944 16.6992C113.691 17.0688 115.669 16.4539 116.742 14.9831C117.363 15.4664 117.954 15.9853 118.576 16.4686C118.699 16.5795 118.934 16.7273 118.819 16.9254C117.957 18.1479 116.714 19.0895 115.308 19.5995C113.768 20.1301 112.056 20.1257 110.51 19.6142C108.882 19.0673 107.475 17.8833 106.684 16.3563C105.919 14.9845 105.722 13.3511 105.928 11.8094C106.291 9.41174 108.024 7.28461 110.293 6.43169ZM111.911 9.14566C110.866 9.33044 109.988 10.0991 109.583 11.0673C111.746 11.1191 113.911 11.0954 116.075 11.0821C115.88 10.6298 115.669 10.1641 115.287 9.83746C114.399 8.99636 113.051 8.92541 111.911 9.14566ZM122.114 7.64381C123.469 6.29126 125.475 5.86554 127.333 5.90693C129.465 5.9365 131.488 6.89437 133.06 8.29865C132.482 9.11018 131.818 9.85667 131.178 10.6194C130.099 9.59208 128.707 8.81454 127.188 8.77168C126.282 8.73177 125.279 8.87515 124.606 9.53738C124.239 9.87293 124.191 10.5588 124.639 10.8471C125.279 11.2284 126.046 11.2565 126.767 11.3497C128.427 11.5182 130.197 11.6054 131.641 12.5352C132.686 13.1871 133.122 14.4982 133.044 15.6822C133.072 17.0156 132.201 18.1893 131.117 18.8825C129.607 19.8375 127.738 20.0887 125.987 19.9276C123.904 19.7532 121.901 18.7539 120.539 17.1649C121.215 16.448 121.871 15.7103 122.597 15.0437C123.166 15.5803 123.732 16.142 124.452 16.4731C125.731 17.0821 127.258 17.2905 128.616 16.8234C129.032 16.7096 129.416 16.4731 129.688 16.1346C129.898 15.8434 129.803 15.465 129.79 15.1353C129.45 14.8485 129.049 14.6298 128.605 14.578C126.863 14.2898 125.035 14.411 123.369 13.7473C122.613 13.4221 121.864 12.9328 121.524 12.1523C120.844 10.7126 120.958 8.81307 122.114 7.64381ZM0.059082 6.3903C1.22981 6.37109 2.40202 6.3903 3.57423 6.38735C4.52471 8.88845 5.54615 11.363 6.51141 13.8596C7.50919 11.3644 8.45524 8.84706 9.51067 6.377C10.2616 6.3903 11.0125 6.36665 11.7634 6.41395C12.6711 8.9195 13.7043 11.3792 14.6563 13.87C15.6097 11.3777 16.6371 8.91506 17.5801 6.41987C18.7331 6.35039 19.892 6.36961 21.0465 6.41248C19.4102 10.7894 17.6334 15.1146 15.966 19.4812C15.1869 19.5241 14.4035 19.564 13.6289 19.4694C12.7051 16.853 11.5846 14.306 10.5868 11.7162C10.198 12.4997 9.9423 13.3393 9.60675 14.1464C8.88687 15.9114 8.18621 17.6852 7.51215 19.4694C6.7494 19.5063 5.93639 19.6216 5.20025 19.4354C3.48111 15.0895 1.77379 10.7392 0.059082 6.3903ZM22.572 6.38735C23.6467 6.38735 24.7243 6.35926 25.7989 6.40804C25.796 10.7658 25.796 15.122 25.7989 19.4783C24.7228 19.5226 23.6467 19.496 22.5705 19.493C22.6326 16.7436 22.5824 13.9927 22.5986 11.2432C22.5838 9.6246 22.6326 8.00449 22.5705 6.38735H22.572ZM80.368 6.39474C81.4323 6.37256 82.4966 6.37404 83.5609 6.39622C83.6008 7.37626 83.5432 8.35926 83.5994 9.3393C84.0724 8.60464 84.6208 7.90545 85.3614 7.42356C86.5351 6.59577 88.0177 6.31935 89.4308 6.39622C89.4722 7.45756 89.4604 8.52186 89.4382 9.58469C88.1064 9.66746 86.7228 9.85076 85.5905 10.6165C84.6814 11.2033 84.0147 12.142 83.7324 13.1841C83.524 13.8981 83.5787 14.6475 83.5757 15.3822C83.5713 16.7495 83.589 18.1183 83.5565 19.4856C82.4966 19.499 81.4353 19.5137 80.3754 19.4871C80.3429 15.1235 80.3577 10.7584 80.368 6.39474ZM90.5764 6.39917C91.6334 6.37256 92.6903 6.377 93.7472 6.39178C93.7649 7.35261 93.7398 8.31344 93.7708 9.27426C94.2468 8.72733 94.6282 8.08579 95.2269 7.65416C96.4493 6.6549 98.0872 6.31491 99.6348 6.40952C99.6274 7.47234 99.623 8.53517 99.6378 9.59799C98.3429 9.67781 96.9977 9.82268 95.8787 10.5381C94.6016 11.2802 93.8063 12.7259 93.762 14.1922C93.7398 15.9542 93.762 17.7162 93.7546 19.4783C92.6962 19.5167 91.6363 19.5049 90.5764 19.4812C90.5469 15.1205 90.5469 10.7584 90.5764 6.39917ZM101.03 6.39326C102.095 6.37404 103.159 6.37109 104.225 6.39622C104.244 10.7599 104.238 15.1235 104.228 19.4871C103.163 19.5123 102.098 19.5019 101.035 19.4842C101.007 15.1205 101.013 10.7569 101.03 6.39326Z" fill="#98A2B3"/>
</svg>
