<svg width="16" height="16" viewBox="0 0 16 16" fill="none" xmlns="http://www.w3.org/2000/svg">
<path d="M4.29165 1.33337C3.39945 1.33337 2.66675 2.06673 2.66675 2.95893V13.8478C2.66675 14.207 2.91583 14.5149 3.21078 14.6212C3.50573 14.7274 3.89255 14.6489 4.1216 14.3723L4.67083 13.7071C4.73303 13.632 4.82299 13.632 4.88518 13.7071L5.19075 14.0739C5.81193 14.8242 6.9893 14.8586 7.61572 14.0941C7.72045 13.9663 7.82213 13.8376 7.92129 13.7123C7.97319 13.6468 8.00086 13.6487 8.01705 13.6485C8.03325 13.6482 8.05882 13.6442 8.11088 13.7071L8.44837 14.1163C9.04718 14.8395 10.1813 14.8395 10.7802 14.1163L11.1203 13.7071C11.1825 13.632 11.2718 13.632 11.334 13.7071L11.8858 14.3723C12.1148 14.6489 12.5017 14.7274 12.7966 14.6212C13.0916 14.5149 13.3387 14.207 13.3387 13.8478V2.95893C13.3387 2.06673 12.6053 1.33337 11.7131 1.33337H4.29165ZM5.50218 3.86389H8.19362C8.3261 3.86406 8.45311 3.91677 8.54679 4.01045C8.64046 4.10413 8.69317 4.23113 8.69334 4.36361C8.6936 4.42943 8.68086 4.49465 8.65587 4.55555C8.63088 4.61644 8.59412 4.6718 8.5477 4.71846C8.50128 4.76512 8.44611 4.80217 8.38535 4.82747C8.32459 4.85278 8.25944 4.86584 8.19362 4.86593H5.50218C5.43614 4.86619 5.3707 4.85338 5.30964 4.82822C5.24858 4.80307 5.1931 4.76608 5.1464 4.71938C5.09971 4.67269 5.06272 4.6172 5.03757 4.55614C5.01241 4.49508 4.99959 4.42965 4.99985 4.36361C4.99994 4.29779 5.01301 4.23264 5.03832 4.17187C5.06362 4.11111 5.10067 4.05595 5.14733 4.00953C5.19399 3.96311 5.24935 3.92634 5.31024 3.90135C5.37113 3.87636 5.43636 3.86363 5.50218 3.86389ZM9.65889 3.86389H10.5059C10.6384 3.86406 10.7654 3.91677 10.859 4.01045C10.9527 4.10413 11.0054 4.23113 11.0056 4.36361C11.0058 4.42943 10.9931 4.49465 10.9681 4.55555C10.9431 4.61644 10.9064 4.6718 10.86 4.71846C10.8135 4.76512 10.7584 4.80217 10.6976 4.82747C10.6368 4.85278 10.5717 4.86584 10.5059 4.86593H9.65889C9.59285 4.86619 9.52742 4.85338 9.46636 4.82822C9.4053 4.80307 9.34982 4.76608 9.30312 4.71938C9.25643 4.67269 9.21943 4.6172 9.19428 4.55614C9.16912 4.49508 9.15631 4.42965 9.15657 4.36361C9.15665 4.29779 9.16973 4.23264 9.19503 4.17187C9.22034 4.11111 9.25738 4.05595 9.30405 4.00953C9.35071 3.96311 9.40607 3.92634 9.46696 3.90135C9.52785 3.87636 9.59307 3.86363 9.65889 3.86389ZM5.50218 5.95463H6.54592C6.61174 5.95437 6.67696 5.96711 6.73785 5.9921C6.79874 6.01709 6.8541 6.05384 6.90076 6.10026C6.94743 6.14668 6.98447 6.20185 7.00978 6.26261C7.03508 6.32337 7.04816 6.38852 7.04824 6.45434C7.04816 6.52016 7.03508 6.58532 7.00978 6.64608C6.98447 6.70684 6.94743 6.76202 6.90076 6.80844C6.8541 6.85486 6.79874 6.89161 6.73785 6.9166C6.67696 6.94159 6.61174 6.95432 6.54592 6.95407H5.50218C5.43636 6.95432 5.37113 6.94159 5.31024 6.9166C5.24935 6.89161 5.19399 6.85486 5.14733 6.80844C5.10067 6.76202 5.06362 6.70684 5.03832 6.64608C5.01301 6.58532 4.99994 6.52016 4.99985 6.45434C4.99994 6.38852 5.01301 6.32337 5.03832 6.26261C5.06362 6.20185 5.10067 6.14668 5.14733 6.10026C5.19399 6.05384 5.24935 6.01709 5.31024 5.9921C5.37113 5.96711 5.43636 5.95437 5.50218 5.95463ZM8.11935 5.95463H10.5059C10.6384 5.9548 10.7654 6.00751 10.859 6.10118C10.9527 6.19486 11.0054 6.32186 11.0056 6.45434C11.0054 6.58682 10.9527 6.71383 10.859 6.80751C10.7654 6.90119 10.6384 6.95389 10.5059 6.95407H8.11935C7.98687 6.95389 7.85986 6.90119 7.76618 6.80751C7.6725 6.71383 7.6198 6.58682 7.61963 6.45434C7.6198 6.32186 7.6725 6.19486 7.76618 6.10118C7.85986 6.00751 7.98687 5.9548 8.11935 5.95463ZM5.33213 8.10921H7.43981C7.50563 8.1093 7.57078 8.12237 7.63154 8.14768C7.6923 8.17299 7.74747 8.21003 7.79389 8.25669C7.84031 8.30335 7.87707 8.35872 7.90206 8.41961C7.92705 8.4805 7.93978 8.54572 7.93952 8.61153C7.93935 8.74401 7.88665 8.87103 7.79297 8.9647C7.69929 9.05838 7.57229 9.11108 7.43981 9.11126H5.33213C5.19965 9.11108 5.07265 9.05838 4.97897 8.9647C4.88529 8.87103 4.83259 8.74401 4.83241 8.61153C4.83216 8.54572 4.84489 8.4805 4.86988 8.41961C4.89487 8.35872 4.93162 8.30335 4.97804 8.25669C5.02446 8.21003 5.07963 8.17299 5.14039 8.14768C5.20115 8.12237 5.26631 8.1093 5.33213 8.10921ZM9.13898 8.10921H10.6707C10.7365 8.1093 10.8017 8.12237 10.8624 8.14768C10.9232 8.17299 10.9784 8.21003 11.0248 8.25669C11.0712 8.30335 11.108 8.35872 11.133 8.41961C11.158 8.4805 11.1707 8.54572 11.1704 8.61153C11.1703 8.74401 11.1176 8.87103 11.0239 8.9647C10.9302 9.05838 10.8032 9.11108 10.6707 9.11126H9.13898C9.0065 9.11108 8.87949 9.05838 8.78582 8.9647C8.69214 8.87103 8.63943 8.74401 8.63926 8.61153C8.63901 8.54572 8.65174 8.4805 8.67673 8.41961C8.70172 8.35872 8.73847 8.30335 8.78489 8.25669C8.83131 8.21003 8.88648 8.17299 8.94724 8.14768C9.008 8.12237 9.07316 8.1093 9.13898 8.10921ZM5.50218 10.1335H5.99929C6.13177 10.1337 6.25878 10.1864 6.35246 10.28C6.44613 10.3737 6.49884 10.5007 6.49901 10.6332C6.49884 10.7657 6.44613 10.8927 6.35246 10.9864C6.25878 11.0801 6.13177 11.1328 5.99929 11.1329H5.50218C5.43636 11.1332 5.37113 11.1205 5.31024 11.0955C5.24935 11.0705 5.19399 11.0337 5.14733 10.9873C5.10067 10.9409 5.06362 10.8857 5.03832 10.8249C5.01301 10.7642 4.99994 10.699 4.99985 10.6332C4.99994 10.5674 5.01301 10.5022 5.03832 10.4415C5.06362 10.3807 5.10067 10.3255 5.14733 10.2791C5.19399 10.2327 5.24935 10.1959 5.31024 10.171C5.37113 10.146 5.43636 10.1332 5.50218 10.1335ZM7.66914 10.1335H10.5059C10.6384 10.1337 10.7654 10.1864 10.859 10.28C10.9527 10.3737 11.0054 10.5007 11.0056 10.6332C11.0054 10.7657 10.9527 10.8927 10.859 10.9864C10.7654 11.0801 10.6384 11.1328 10.5059 11.1329H7.66914C7.53655 11.1329 7.40938 11.0803 7.31556 10.9866C7.22174 10.8929 7.16895 10.7658 7.16878 10.6332C7.16895 10.5006 7.22174 10.3735 7.31556 10.2798C7.40938 10.1861 7.53655 10.1335 7.66914 10.1335Z" fill="#2B580C"/>
</svg>
