<svg width="16" height="16" viewBox="0 0 16 16" fill="none" xmlns="http://www.w3.org/2000/svg">
<path fill-rule="evenodd" clip-rule="evenodd" d="M5.96964 14.3814H3.6273C2.68527 14.3814 1.92188 13.6174 1.92188 12.676V7.98328C2.52343 8.49056 3.2887 8.77396 4.08558 8.77396H4.08991C4.78821 8.77396 5.46354 8.55443 6.02416 8.15381C6.60215 8.55506 7.35006 8.77396 8.01114 8.77396C8.67286 8.77396 9.4158 8.55506 9.99379 8.15381C10.5544 8.55443 11.2539 8.77396 11.9324 8.77396C12.6108 8.77396 13.4654 8.50109 14.0614 8.01178V12.676C14.0614 13.6174 13.298 14.3814 12.356 14.3814H10.0136V11.1101C10.0136 10.6816 9.66635 10.3349 9.23844 10.3349H6.74483C6.31693 10.3349 5.96964 10.6816 5.96964 11.1101V14.3814Z" fill="#2B580C"/>
<path fill-rule="evenodd" clip-rule="evenodd" d="M14.5785 4.91973C14.5798 4.92408 14.581 4.9278 14.5822 4.93213C14.6362 5.09894 14.6653 5.27321 14.6666 5.44873V5.45802C14.6573 6.11166 14.4136 6.74485 13.9739 7.2385C13.4548 7.82084 12.7125 8.15385 11.9323 8.15385H11.928C11.2105 8.15385 10.5215 7.86858 10.0142 7.36066C10.0099 7.35633 10.0055 7.35197 10.0012 7.34764C9.46784 7.86425 8.75466 8.15385 8.01111 8.15385H8.00678C7.2632 8.15385 6.55005 7.86425 6.01671 7.34764C6.01236 7.35197 6.00803 7.35633 6.00368 7.36066C5.49639 7.86858 4.80741 8.15385 4.08988 8.15385H4.08552C3.30537 8.15385 2.56306 7.82084 2.04397 7.2385C1.60738 6.74921 1.36428 6.12161 1.33388 5.47293C1.33388 5.46485 1.33325 5.45617 1.33325 5.44812C1.33512 5.26392 1.36611 5.08162 1.42567 4.90798L2.29697 2.3554C2.44705 1.91509 2.86071 1.61865 3.32643 1.61865H12.6914C13.1571 1.61865 13.5708 1.91509 13.7215 2.3554C13.9671 3.07662 14.4514 4.50361 14.5785 4.91973Z" fill="#2B580C"/>
</svg>
