<svg width="16" height="16" viewBox="0 0 16 16" fill="none" xmlns="http://www.w3.org/2000/svg">
<path d="M2.66664 3.33341C2.66664 2.96521 2.96513 2.66672 3.33333 2.66672H4.66672C5.03492 2.66672 5.33341 2.36823 5.33341 2.00002C5.33341 1.63182 5.03492 1.33333 4.66672 1.33333H3.33333C2.22872 1.33333 1.33325 2.2288 1.33325 3.33341V4.6668C1.33325 5.035 1.63174 5.33349 1.99994 5.33349C2.36815 5.33349 2.66664 5.035 2.66664 4.6668V3.33341Z" fill="#FAFBFB"/>
<path d="M13.3333 12.6666C13.3333 13.0348 13.0348 13.3333 12.6666 13.3333H11.3332C10.965 13.3333 10.6665 13.6318 10.6665 14C10.6665 14.3682 10.965 14.6667 11.3332 14.6667H12.6666C13.7712 14.6667 14.6667 13.7712 14.6667 12.6666V11.3332C14.6667 10.965 14.3682 10.6665 14 10.6665C13.6318 10.6665 13.3333 10.965 13.3333 11.3332V12.6666Z" fill="#FAFBFB"/>
<path d="M2.66664 12.6666C2.66664 13.0348 2.96513 13.3333 3.33333 13.3333H4.66672C5.03492 13.3333 5.33341 13.6318 5.33341 14C5.33341 14.3682 5.03492 14.6667 4.66672 14.6667H3.33333C2.22872 14.6667 1.33325 13.7712 1.33325 12.6666V11.3332C1.33325 10.965 1.63174 10.6665 1.99994 10.6665C2.36815 10.6665 2.66664 10.965 2.66664 11.3332V12.6666Z" fill="#FAFBFB"/>
<path d="M12.6666 2.66672C13.0348 2.66672 13.3333 2.96521 13.3333 3.33341V4.6668C13.3333 5.035 13.6318 5.33349 14 5.33349C14.3682 5.33349 14.6667 5.035 14.6667 4.6668V3.33341C14.6667 2.2288 13.7712 1.33333 12.6666 1.33333H11.3332C10.965 1.33333 10.6665 1.63182 10.6665 2.00002C10.6665 2.36823 10.965 2.66672 11.3332 2.66672H12.6666Z" fill="#FAFBFB"/>
<path d="M4.00024 6.66681C4.00024 7.03502 4.29873 7.33348 4.66692 7.33348H6.66693C7.03513 7.33348 7.3336 7.03502 7.3336 6.66681V4.6668C7.3336 4.29861 7.03513 4.00013 6.66693 4.00013H4.66692C4.29873 4.00013 4.00024 4.2986 4.00024 4.6668V6.66681Z" fill="#FAFBFB"/>
<path d="M4 11.3333C4 11.7015 4.29848 12 4.66667 12H6.66667C7.03487 12 7.33333 11.7015 7.33333 11.3333V9.33333C7.33333 8.96513 7.03487 8.66667 6.66667 8.66667H4.66667C4.29848 8.66667 4 8.96513 4 9.33333V11.3333Z" fill="#FAFBFB"/>
<path d="M8.66675 6.66681C8.66675 7.03502 8.96522 7.33348 9.33342 7.33348H11.3334C11.7016 7.33348 12.0001 7.03502 12.0001 6.66681V4.6668C12.0001 4.29861 11.7016 4.00013 11.3334 4.00013H9.33342C8.96522 4.00013 8.66675 4.2986 8.66675 4.6668V6.66681Z" fill="#FAFBFB"/>
<path d="M8.66675 11.3333C8.66675 11.7015 8.96521 12 9.33341 12H11.3334C11.7016 12 12.0001 11.7015 12.0001 11.3333V9.33333C12.0001 8.96513 11.7016 8.66667 11.3334 8.66667H9.33341C8.96521 8.66667 8.66675 8.96513 8.66675 9.33333V11.3333Z" fill="#FAFBFB"/>
</svg>
