<svg width="14" height="14" viewBox="0 0 14 14" fill="none" xmlns="http://www.w3.org/2000/svg">
<path d="M6.25368 7.73706C5.15556 7.73706 1.92363 7.73706 1.92363 7.73706C1.58054 7.73706 1.2998 8.01775 1.2998 8.36084V13.0429C1.2998 13.386 1.58054 13.6667 1.92363 13.6667C1.92363 13.6667 5.22318 13.6667 6.32649 13.6667C6.47324 13.6667 6.47324 13.5091 6.47324 13.5091V7.94903C6.47324 7.94903 6.4732 7.73706 6.25368 7.73706Z" fill="#2B580C"/>
<path d="M12.0764 7.73706C12.0764 7.73706 8.83212 7.73706 7.75077 7.73706C7.4873 7.73706 7.52675 8.01143 7.52675 8.01143V13.5141C7.52675 13.5141 7.52462 13.6666 7.6831 13.6666C8.7814 13.6666 12.0763 13.6666 12.0763 13.6666C12.4194 13.6666 12.7001 13.3859 12.7001 13.0428V8.36084C12.7002 8.01775 12.4195 7.73706 12.0764 7.73706Z" fill="#2B580C"/>
<path d="M6.47306 4.05318C6.47306 4.05318 6.47306 3.8418 6.26418 3.8418C5.01339 3.8418 1.21904 3.8418 1.21904 3.8418C0.87595 3.8418 0.595215 4.12253 0.595215 4.46558V6.41281C0.595215 6.7559 0.87595 7.03659 1.21904 7.03659C1.21904 7.03659 5.03039 7.03659 6.28126 7.03659C6.47306 7.03659 6.47306 6.87025 6.47306 6.87025V4.05318Z" fill="#2B580C"/>
<path d="M12.7808 3.8418C12.7808 3.8418 8.98493 3.8418 7.7196 3.8418C7.52686 3.8418 7.52686 4.02545 7.52686 4.02545V6.87411C7.52686 6.87411 7.52686 7.03659 7.76119 7.03659C9.01606 7.03659 12.7808 7.03659 12.7808 7.03659C13.1239 7.03659 13.4047 6.7559 13.4047 6.41281V4.46558C13.4047 4.12253 13.1239 3.8418 12.7808 3.8418Z" fill="#2B580C"/>
<path d="M4.35135 3.38023C4.06594 3.38023 3.80524 3.3576 3.57664 3.31293C2.99599 3.19949 2.59691 2.9787 2.35658 2.63802C2.14124 2.33269 2.07534 1.95629 2.16065 1.51921C2.31008 0.754499 2.82365 0.333374 3.60663 0.333374C3.77234 0.333374 3.95431 0.352508 4.14756 0.390275C4.63913 0.486308 5.26786 0.768179 5.82947 1.14426C6.7823 1.78241 6.82943 2.17912 6.78198 2.42205C6.71221 2.779 6.37858 3.03405 5.76198 3.20185C5.3454 3.3152 4.83124 3.38023 4.35135 3.38023ZM3.60668 1.33319C3.30345 1.33319 3.19923 1.41791 3.14201 1.71091C3.0952 1.95047 3.15424 2.03414 3.1736 2.06164C3.25468 2.17662 3.46588 2.27252 3.76834 2.33156C3.93154 2.36346 4.1332 2.38032 4.35131 2.38032C4.83092 2.38032 5.25346 2.30765 5.53383 2.22816C5.55423 2.22239 5.58591 2.19826 5.55196 2.17803C5.18542 1.87944 4.51483 1.48072 3.95586 1.37151C3.82565 1.34615 3.70812 1.33319 3.60668 1.33319Z" fill="#2B580C"/>
<path d="M9.66286 3.38019C9.66286 3.38019 9.66286 3.38019 9.66277 3.38019C9.18288 3.38019 8.66877 3.31515 8.25219 3.2018C7.63555 3.03405 7.30195 2.77895 7.23219 2.42205C7.18479 2.17912 7.23183 1.78241 8.18474 1.14426C8.74626 0.768179 9.37499 0.486308 9.86665 0.390275C10.0599 0.352508 10.2419 0.333374 10.4074 0.333374C11.1906 0.333374 11.7041 0.754544 11.8534 1.51926C11.9388 1.95629 11.873 2.33269 11.6576 2.63802C11.4173 2.97874 11.0182 3.19949 10.4374 3.31293C10.2089 3.35751 9.94823 3.38019 9.66286 3.38019ZM8.47021 2.17181C8.43771 2.19067 8.45343 2.22044 8.4703 2.2253C8.75053 2.30588 9.17752 2.38032 9.66277 2.38032C9.88097 2.38032 10.0825 2.36346 10.2458 2.33156C10.5482 2.27248 10.7595 2.17662 10.8405 2.06164C10.86 2.03414 10.9191 1.95047 10.8721 1.71092C10.8149 1.41791 10.7107 1.33319 10.4074 1.33319C10.306 1.33319 10.1886 1.3461 10.0583 1.37155C9.49925 1.48072 8.83675 1.87317 8.47021 2.17181Z" fill="#2B580C"/>
</svg>
