<svg width="20" height="21" viewBox="0 0 20 21" fill="none" xmlns="http://www.w3.org/2000/svg">
<path d="M3.33348 4.6666C3.33348 4.20635 3.70659 3.83324 4.16685 3.83324H5.83358C6.29383 3.83324 6.66694 3.46012 6.66694 2.99987C6.66694 2.53962 6.29383 2.1665 5.83358 2.1665H4.16685C2.78608 2.1665 1.66675 3.28584 1.66675 4.6666V6.33333C1.66675 6.79359 2.03986 7.1667 2.50011 7.1667C2.96037 7.1667 3.33348 6.79359 3.33348 6.33333V4.6666Z" fill="#3086EF"/>
<path d="M16.6667 16.3331C16.6667 16.7934 16.2936 17.1665 15.8334 17.1665H14.1666C13.7063 17.1665 13.3333 17.5396 13.3333 17.9998C13.3333 18.4601 13.7063 18.8332 14.1666 18.8332H15.8334C17.2142 18.8332 18.3334 17.7139 18.3334 16.3331V14.6664C18.3334 14.2061 17.9604 13.833 17.5001 13.833C17.0398 13.833 16.6667 14.2061 16.6667 14.6664V16.3331Z" fill="#3086EF"/>
<path d="M3.33348 16.3331C3.33348 16.7934 3.70659 17.1665 4.16685 17.1665H5.83358C6.29384 17.1665 6.66694 17.5396 6.66694 17.9998C6.66694 18.4601 6.29384 18.8332 5.83358 18.8332H4.16685C2.78608 18.8332 1.66675 17.7139 1.66675 16.3331V14.6664C1.66675 14.2061 2.03986 13.833 2.50011 13.833C2.96037 13.833 3.33348 14.2061 3.33348 14.6664V16.3331Z" fill="#3086EF"/>
<path d="M15.8334 3.83324C16.2936 3.83324 16.6667 4.20635 16.6667 4.6666V6.33333C16.6667 6.79358 17.0398 7.1667 17.5001 7.1667C17.9604 7.1667 18.3334 6.79359 18.3334 6.33333V4.6666C18.3334 3.28584 17.2142 2.1665 15.8334 2.1665H14.1666C13.7063 2.1665 13.3333 2.53962 13.3333 2.99987C13.3333 3.46012 13.7063 3.83324 14.1666 3.83324H15.8334Z" fill="#3086EF"/>
<path d="M5.00024 8.83335C5.00024 9.29361 5.37335 9.66669 5.83358 9.66669H8.3336C8.79385 9.66669 9.16694 9.29361 9.16694 8.83335V6.33334C9.16694 5.8731 8.79385 5.5 8.3336 5.5H5.83358C5.37335 5.5 5.00024 5.87309 5.00024 6.33334V8.83335Z" fill="#3086EF"/>
<path d="M5 14.6668C5 15.1271 5.3731 15.5002 5.83333 15.5002H8.33333C8.79358 15.5002 9.16667 15.1271 9.16667 14.6668V12.1668C9.16667 11.7066 8.79358 11.3335 8.33333 11.3335H5.83333C5.3731 11.3335 5 11.7066 5 12.1668V14.6668Z" fill="#3086EF"/>
<path d="M10.8333 8.83335C10.8333 9.29361 11.2063 9.66669 11.6666 9.66669H14.1666C14.6269 9.66669 14.9999 9.29361 14.9999 8.83335V6.33334C14.9999 5.8731 14.6269 5.5 14.1666 5.5H11.6666C11.2063 5.5 10.8333 5.87309 10.8333 6.33334V8.83335Z" fill="#3086EF"/>
<path d="M10.8333 14.6668C10.8333 15.1271 11.2063 15.5002 11.6666 15.5002H14.1666C14.6268 15.5002 14.9999 15.1271 14.9999 14.6668V12.1668C14.9999 11.7066 14.6268 11.3335 14.1666 11.3335H11.6666C11.2063 11.3335 10.8333 11.7066 10.8333 12.1668V14.6668Z" fill="#3086EF"/>
</svg>
