<svg width="16" height="16" viewBox="0 0 16 16" fill="none" xmlns="http://www.w3.org/2000/svg">
<path d="M2.66664 3.33345C2.66664 2.96525 2.96513 2.66676 3.33333 2.66676H4.66672C5.03492 2.66676 5.33341 2.36827 5.33341 2.00007C5.33341 1.63187 5.03492 1.33337 4.66672 1.33337H3.33333C2.22872 1.33337 1.33325 2.22884 1.33325 3.33345V4.66684C1.33325 5.03505 1.63174 5.33353 1.99994 5.33353C2.36815 5.33353 2.66664 5.03505 2.66664 4.66684V3.33345Z" fill="#FAFBFB"/>
<path d="M13.3333 12.6666C13.3333 13.0348 13.0348 13.3333 12.6666 13.3333H11.3332C10.965 13.3333 10.6665 13.6318 10.6665 14C10.6665 14.3682 10.965 14.6667 11.3332 14.6667H12.6666C13.7712 14.6667 14.6667 13.7712 14.6667 12.6666V11.3332C14.6667 10.965 14.3682 10.6665 14 10.6665C13.6318 10.6665 13.3333 10.965 13.3333 11.3332V12.6666Z" fill="#FAFBFB"/>
<path d="M2.66664 12.6666C2.66664 13.0348 2.96513 13.3333 3.33333 13.3333H4.66672C5.03492 13.3333 5.33341 13.6318 5.33341 14C5.33341 14.3682 5.03492 14.6667 4.66672 14.6667H3.33333C2.22872 14.6667 1.33325 13.7712 1.33325 12.6666V11.3332C1.33325 10.965 1.63174 10.6665 1.99994 10.6665C2.36815 10.6665 2.66664 10.965 2.66664 11.3332V12.6666Z" fill="#FAFBFB"/>
<path d="M12.6666 2.66676C13.0348 2.66676 13.3333 2.96525 13.3333 3.33345V4.66684C13.3333 5.03504 13.6318 5.33353 14 5.33353C14.3682 5.33353 14.6667 5.03505 14.6667 4.66684V3.33345C14.6667 2.22884 13.7712 1.33337 12.6666 1.33337H11.3332C10.965 1.33337 10.6665 1.63187 10.6665 2.00007C10.6665 2.36827 10.965 2.66676 11.3332 2.66676H12.6666Z" fill="#FAFBFB"/>
<path d="M4.00024 6.66681C4.00024 7.03501 4.29873 7.33348 4.66692 7.33348H6.66693C7.03513 7.33348 7.3336 7.03501 7.3336 6.66681V4.66679C7.3336 4.2986 7.03513 4.00012 6.66693 4.00012H4.66692C4.29873 4.00012 4.00024 4.2986 4.00024 4.66679V6.66681Z" fill="#FAFBFB"/>
<path d="M4 11.3333C4 11.7015 4.29848 12 4.66667 12H6.66667C7.03487 12 7.33333 11.7015 7.33333 11.3333V9.33329C7.33333 8.96509 7.03487 8.66663 6.66667 8.66663H4.66667C4.29848 8.66663 4 8.96509 4 9.33329V11.3333Z" fill="#FAFBFB"/>
<path d="M8.66675 6.66681C8.66675 7.03501 8.96522 7.33348 9.33342 7.33348H11.3334C11.7016 7.33348 12.0001 7.03501 12.0001 6.66681V4.66679C12.0001 4.2986 11.7016 4.00012 11.3334 4.00012H9.33342C8.96522 4.00012 8.66675 4.2986 8.66675 4.66679V6.66681Z" fill="#FAFBFB"/>
<path d="M8.66675 11.3333C8.66675 11.7015 8.96521 12 9.33341 12H11.3334C11.7016 12 12.0001 11.7015 12.0001 11.3333V9.33329C12.0001 8.96509 11.7016 8.66663 11.3334 8.66663H9.33341C8.96521 8.66663 8.66675 8.96509 8.66675 9.33329V11.3333Z" fill="#FAFBFB"/>
</svg>
