<svg width="48" height="49" viewBox="0 0 48 49" fill="none" xmlns="http://www.w3.org/2000/svg">
<path opacity="0.12" d="M24 48.3369C37.2548 48.3369 48 37.5917 48 24.3369C48 11.0821 37.2548 0.336914 24 0.336914C10.7452 0.336914 0 11.0821 0 24.3369C0 37.5917 10.7452 48.3369 24 48.3369Z" fill="#818C99"/>
<path d="M33.4728 14.8641C34.1758 15.5671 34.1758 16.7068 33.4728 17.4097L26.546 24.3369L33.4728 31.2641C34.1172 31.9085 34.1709 32.9199 33.6339 33.6254L33.4728 33.8097C32.7699 34.5127 31.6302 34.5127 30.9272 33.8097L24 26.8829L17.0728 33.8097C16.3698 34.5127 15.2302 34.5127 14.5272 33.8097C13.8243 33.1068 13.8243 31.9671 14.5272 31.2641L21.454 24.3369L14.5272 17.4097C13.8828 16.7653 13.8291 15.754 14.3661 15.0485L14.5272 14.8641C15.2302 14.1612 16.3698 14.1612 17.0728 14.8641L24 21.7909L30.9272 14.8641C31.6302 14.1612 32.7699 14.1612 33.4728 14.8641Z" fill="#818C99"/>
</svg>
