<svg width="18" height="17" viewBox="0 0 18 17" fill="none" xmlns="http://www.w3.org/2000/svg">
<path d="M17.2098 0.649927C17.1755 0.523381 17.0767 0.424563 16.9502 0.390314C15.7293 0.0599076 14.4373 0.400742 13.5341 1.30393L10.2536 4.58438C10.1331 4.70485 9.95141 4.73984 9.79481 4.67273L3.06275 1.78761C2.90615 1.72049 2.72447 1.75548 2.604 1.87595L1.75892 2.72099C1.58072 2.89918 1.60025 3.19353 1.80043 3.34661L6.9139 7.2569C7.11408 7.40997 7.13362 7.70432 6.95543 7.88251L4.30151 10.5364C4.18992 10.648 4.02484 10.687 3.87512 10.6371L2.29211 10.1094C2.14239 10.0595 1.97731 10.0984 1.86571 10.21L1.04408 11.0317C0.852412 11.2234 0.891904 11.5441 1.12434 11.6836L4.0301 13.4271C4.08874 13.4623 4.13783 13.5113 4.17301 13.57L5.91647 16.4757C6.05593 16.7082 6.37671 16.7477 6.56839 16.556L7.39001 15.7343C7.5016 15.6227 7.54057 15.4577 7.49066 15.3079L6.963 13.725C6.91309 13.5753 6.95206 13.4102 7.06366 13.2986L9.71757 10.6447C9.89576 10.4665 10.1901 10.486 10.3432 10.6862L14.2535 15.7997C14.4066 15.9999 14.7009 16.0194 14.8791 15.8412L15.7242 14.9961C15.8446 14.8756 15.8796 14.694 15.8125 14.5374L12.9274 7.80531C12.8603 7.64871 12.8953 7.46702 13.0157 7.34655L16.2962 4.06607C17.1994 3.16288 17.5402 1.8708 17.2098 0.649927Z" fill="#FAFBFB"/>
</svg>
